<?xml version="1.0" encoding="utf-8"?>
<!-- Generator: Adobe Illustrator 15.0.0, SVG Export Plug-In . SVG Version: 6.00 Build 0)  -->
<!DOCTYPE svg PUBLIC "-//W3C//DTD SVG 1.1//EN" "http://www.w3.org/Graphics/SVG/1.1/DTD/svg11.dtd">
<svg version="1.1" id="Layer_1" xmlns="http://www.w3.org/2000/svg" xmlns:xlink="http://www.w3.org/1999/xlink" x="0px" y="0px"
	 width="23.667px" height="23.667px" viewBox="4.625 4.792 23.667 23.667" enable-background="new 4.625 4.792 23.667 23.667"
	 xml:space="preserve">
<path fill="#FFFFFF" stroke="#262626" stroke-width="0.5" stroke-miterlimit="10" d="M17.814,16.623l9.588-9.597
	c0.021-0.045,0.045-0.067,0.064-0.067c0.047-0.045,0.072-0.091,0.085-0.136c0.034-0.036,0.06-0.084,0.068-0.153V6.484
	c0-0.08-0.022-0.188-0.068-0.322c-0.013-0.101-0.065-0.193-0.169-0.272c-0.115-0.113-0.217-0.18-0.306-0.204
	c-0.136-0.045-0.243-0.068-0.321-0.068h-0.188l-0.084,0.068l-0.033,0.035h-0.018c-0.058,0.011-0.099,0.028-0.119,0.051
	c-0.021,0.022-0.045,0.042-0.068,0.061c-0.02,0.017-0.035,0.03-0.051,0.042l-0.032,0.017l-9.537,9.545L7.277,6.044
	C7.208,6.01,7.168,5.993,7.157,5.993C7.124,5.925,7.072,5.892,7.004,5.892C6.994,5.869,6.942,5.851,6.851,5.84
	C6.807,5.819,6.75,5.806,6.681,5.806c-0.09,0-0.202,0.018-0.338,0.051c-0.058,0.011-0.142,0.086-0.256,0.22
	C5.951,6.214,5.879,6.298,5.866,6.334c-0.034,0.134-0.05,0.248-0.05,0.339c0,0.068,0.011,0.124,0.034,0.17
	c0.012,0.09,0.029,0.141,0.052,0.153c0,0.068,0.034,0.12,0.101,0.154c0,0.01,0.018,0.05,0.051,0.119l9.385,9.358l-9.536,9.544
	l-0.019,0.035c-0.011,0.011-0.026,0.028-0.042,0.051c-0.018,0.024-0.037,0.047-0.061,0.067L5.73,26.443
	c0,0.013-0.012,0.039-0.036,0.084l-0.065,0.051v0.188c0,0.079,0.022,0.188,0.067,0.322c0.036,0.104,0.103,0.203,0.204,0.306
	c0.08,0.078,0.17,0.136,0.271,0.171c0.182,0.045,0.29,0.065,0.323,0.065h0.187l0.136-0.065c0.023-0.013,0.051-0.029,0.084-0.052
	c0.033-0.022,0.057-0.034,0.068-0.034c0-0.022,0.021-0.046,0.067-0.068l9.587-9.594l9.535,9.545l0.035,0.016
	c0.012,0.012,0.025,0.027,0.051,0.045c0.023,0.018,0.047,0.036,0.068,0.061c0.033,0.031,0.072,0.061,0.117,0.084l0.137,0.066h0.354
	c0.024-0.023,0.062-0.033,0.104-0.033c0.043-0.023,0.072-0.035,0.082-0.035c0.023-0.021,0.076-0.051,0.154-0.084
	c0.033-0.033,0.063-0.074,0.086-0.119c0.045-0.022,0.084-0.052,0.117-0.084c0.035-0.078,0.063-0.131,0.084-0.153
	c0-0.013,0.012-0.039,0.034-0.085c0-0.047,0.011-0.079,0.033-0.102V26.58l-0.067-0.135c-0.033-0.035-0.063-0.074-0.082-0.119
	c-0.021-0.022-0.044-0.045-0.063-0.068c-0.016-0.021-0.029-0.039-0.041-0.051l-0.018-0.035L17.814,16.623z"/>
</svg>
