<?xml version="1.0" encoding="utf-8"?>
<!-- Generator: Adobe Illustrator 15.0.0, SVG Export Plug-In . SVG Version: 6.00 Build 0)  -->
<!DOCTYPE svg PUBLIC "-//W3C//DTD SVG 1.1//EN" "http://www.w3.org/Graphics/SVG/1.1/DTD/svg11.dtd">
<svg version="1.1" id="Layer_1" xmlns="http://www.w3.org/2000/svg" xmlns:xlink="http://www.w3.org/1999/xlink" x="0px" y="0px"
	 width="33.25px" height="33.25px" viewBox="-4.125 -4.133 33.25 33.25" enable-background="new -4.125 -4.133 33.25 33.25"
	 xml:space="preserve">
<circle fill="#FFFFFF" stroke="#7F7F7F" stroke-width="0.5" stroke-miterlimit="10" cx="12.5" cy="12.492" r="16.625"/>
<path fill="#7F7F7F" d="M13.69,12.49l9.587-9.597c0.021-0.045,0.045-0.067,0.065-0.067c0.046-0.045,0.072-0.091,0.085-0.136
	c0.034-0.036,0.059-0.084,0.068-0.153V2.351c0-0.08-0.023-0.188-0.068-0.322c-0.013-0.101-0.066-0.193-0.169-0.272
	c-0.115-0.113-0.217-0.18-0.306-0.204c-0.136-0.045-0.243-0.068-0.321-0.068h-0.188L22.36,1.553l-0.034,0.035h-0.018
	c-0.057,0.011-0.098,0.028-0.118,0.051c-0.022,0.022-0.045,0.042-0.069,0.061c-0.02,0.017-0.035,0.03-0.051,0.042l-0.032,0.017
	l-9.537,9.545L3.152,1.911C3.083,1.877,3.043,1.86,3.032,1.86C2.999,1.792,2.947,1.759,2.879,1.759
	c-0.01-0.023-0.062-0.041-0.153-0.052c-0.044-0.021-0.101-0.034-0.17-0.034c-0.09,0-0.202,0.018-0.338,0.051
	C2.16,1.735,2.076,1.81,1.962,1.944C1.826,2.081,1.754,2.165,1.741,2.201c-0.034,0.134-0.05,0.248-0.05,0.339
	c0,0.068,0.011,0.124,0.034,0.17C1.737,2.8,1.754,2.851,1.777,2.863c0,0.068,0.034,0.12,0.101,0.154c0,0.01,0.018,0.05,0.051,0.119
	l9.385,9.358l-9.536,9.544l-0.019,0.035c-0.011,0.011-0.026,0.028-0.042,0.051c-0.018,0.024-0.037,0.047-0.061,0.068l-0.051,0.119
	c0,0.012-0.012,0.039-0.036,0.084l-0.065,0.05v0.188c0,0.079,0.022,0.187,0.067,0.322c0.036,0.104,0.103,0.203,0.204,0.306
	c0.08,0.078,0.17,0.135,0.271,0.17c0.182,0.045,0.29,0.066,0.323,0.066h0.187l0.136-0.066c0.023-0.012,0.051-0.028,0.084-0.051
	c0.033-0.023,0.057-0.034,0.068-0.034c0-0.023,0.021-0.046,0.067-0.068l9.587-9.595l9.535,9.545l0.035,0.016
	c0.012,0.012,0.026,0.027,0.051,0.045c0.024,0.017,0.047,0.036,0.068,0.06c0.033,0.032,0.073,0.061,0.118,0.084l0.137,0.067h0.354
	c0.024-0.023,0.061-0.033,0.104-0.033c0.043-0.024,0.072-0.035,0.083-0.035c0.023-0.022,0.075-0.051,0.154-0.084
	c0.033-0.034,0.062-0.074,0.085-0.119c0.045-0.023,0.084-0.052,0.118-0.085c0.035-0.078,0.062-0.131,0.084-0.153
	c0-0.013,0.012-0.039,0.034-0.085c0-0.046,0.011-0.079,0.033-0.102v-0.357l-0.067-0.135c-0.033-0.035-0.062-0.074-0.082-0.119
	c-0.022-0.022-0.044-0.045-0.062-0.068c-0.016-0.021-0.03-0.039-0.041-0.051l-0.018-0.035L13.69,12.49z"/>
</svg>
