<?xml version="1.0" encoding="utf-8"?>
<!-- Generator: Adobe Illustrator 15.0.0, SVG Export Plug-In . SVG Version: 6.00 Build 0)  -->
<!DOCTYPE svg PUBLIC "-//W3C//DTD SVG 1.1//EN" "http://www.w3.org/Graphics/SVG/1.1/DTD/svg11.dtd">
<svg version="1.1"
	 id="svg2167" sodipodi:docbase="/svgstuff/publicdomain" inkscape:version="0.45.1" sodipodi:version="0.32" sodipodi:docname="British Flag.svg" xmlns:inkscape="http://www.inkscape.org/namespaces/inkscape" xmlns:rdf="http://www.w3.org/1999/02/22-rdf-syntax-ns#" xmlns:cc="http://web.resource.org/cc/" xmlns:dc="http://purl.org/dc/elements/1.1/" xmlns:sodipodi="http://sodipodi.sourceforge.net/DTD/sodipodi-0.dtd" xmlns:svg="http://www.w3.org/2000/svg" xmlns:ns1="http://sozi.baierouge.fr" inkscape:output_extension="org.inkscape.output.svg.inkscape"
	 xmlns="http://www.w3.org/2000/svg" xmlns:xlink="http://www.w3.org/1999/xlink" x="0px" y="0px" width="100px" height="77.602px"
	 viewBox="257.159 183.299 100 77.602" enable-background="new 257.159 183.299 100 77.602" xml:space="preserve">
<sodipodi:namedview  id="base" inkscape:document-units="px" inkscape:pageopacity="0.0" inkscape:window-width="744" inkscape:window-x="22" inkscape:window-y="29" inkscape:current-layer="layer1" inkscape:window-height="573" inkscape:pageshadow="2" inkscape:cy="470.66299" inkscape:cx="375" borderopacity="1.0" objecttolerance="10" inkscape:zoom="0.35" gridtolerance="10000" pagecolor="#ffffff" guidetolerance="10" bordercolor="#666666">
	</sodipodi:namedview>
<g id="layer1" inkscape:groupmode="layer" inkscape:label="Layer 1">
	<g id="g2251" transform="translate(2.8571 .0000028571)">
		<path id="path2267" display="none" fill="#FFFFFF" d="M254.82,222.157v-38.743l49.997,0h49.997v38.743v38.742h-49.997H254.82
			V222.157L254.82,222.157z"/>
		<path id="path2265" display="none" fill="#34340B" d="M255.097,260.817c0.066-0.043,0.113-0.111,0.104-0.151
			c-0.013-0.056,28.21-22.421,36.924-29.262l1.697-1.331l2.109,0.028l2.108,0.03v2.045v2.047l-17.256,13.125
			c-9.491,7.218-17.441,13.22-17.667,13.338c-0.387,0.2-0.633,0.212-4.275,0.21C256.716,260.896,255.031,260.86,255.097,260.817
			L255.097,260.817z M266.331,260.735c0.032-0.227,31.443-24.001,31.62-23.932c0.117,0.046,0.141,2.027,0.141,11.905
			c0,6.518-0.028,11.926-0.063,12.02c-0.057,0.155-1.554,0.17-15.892,0.17C268.056,260.898,266.31,260.881,266.331,260.735z
			 M300.777,260.873c-0.013-0.015-0.049-7.714-0.079-17.108l-0.053-17.082l-22.887-0.054c-12.587-0.03-22.899-0.066-22.913-0.082
			c-0.034-0.034-0.034-10.472,0-10.505c0.014-0.015,10.325-0.05,22.913-0.08l22.887-0.056l0.053-16.219
			c0.03-8.92,0.065-16.231,0.079-16.246c0.033-0.035,8.881-0.035,8.914,0c0.014,0.015,0.049,7.326,0.077,16.246l0.054,16.219
			l22.471,0.056c12.358,0.03,22.48,0.065,22.496,0.08c0.013,0.015,0.025,2.378,0.025,5.252c0,2.876-0.013,5.239-0.025,5.253
			c-0.016,0.015-10.138,0.052-22.496,0.082l-22.471,0.054l-0.054,17.082c-0.028,9.394-0.063,17.093-0.077,17.108
			c-0.014,0.013-2.02,0.025-4.457,0.025C302.797,260.898,300.791,260.886,300.777,260.873L300.777,260.873z M312.231,260.729
			c-0.034-0.094-0.063-5.502-0.063-12.02c0-9.92,0.023-11.857,0.142-11.905c0.177-0.07,31.69,23.706,31.723,23.935
			c0.021,0.143-1.814,0.16-15.857,0.16C313.79,260.898,312.288,260.883,312.231,260.729z M335.541,245.323
			c-10.418-8.191-18.957-14.972-18.976-15.069c-0.031-0.162,0.328-0.177,4.188-0.177h4.222l0.504,0.397
			c2.445,1.923,29.104,23.881,29.204,24.054c0.095,0.164,0.13,0.964,0.13,2.957c0,2.415-0.019,2.731-0.164,2.731
			C354.559,260.216,345.961,253.514,335.541,245.323L335.541,245.323z M254.82,241.668c0-10.351,0.016-11.466,0.165-11.525
			c0.091-0.035,6.542-0.065,14.337-0.065c13.43,0,14.172,0.01,14.167,0.189c-0.007,0.212-28.124,22.752-28.464,22.82
			C254.823,253.127,254.821,252.979,254.82,241.668L254.82,241.668z M341.377,241.402c-8.192-6.824-13.144-11.018-13.146-11.136
			c-0.005-0.179,0.688-0.189,13.123-0.189c7.223,0,13.205,0.03,13.296,0.065c0.147,0.06,0.164,1.141,0.164,11.136
			c0,9.488-0.021,11.07-0.148,11.07C354.584,252.349,348.605,247.423,341.377,241.402z M254.951,212.44
			c-0.103-0.043-0.13-2.436-0.13-11.454c0-11.051,0.006-11.4,0.194-11.388c0.297,0.019,28.362,22.5,28.369,22.724
			c0.005,0.179-0.732,0.189-14.148,0.181C261.45,212.5,255.021,212.471,254.951,212.44L254.951,212.44z M286.038,212.207
			c-1.24-0.931-30.882-24.866-31.033-25.059c-0.154-0.197-0.181-0.486-0.183-1.982l-0.002-1.751h1.128
			c0.867,0,1.213,0.044,1.492,0.188c0.62,0.321,36.584,28.586,36.584,28.752c0,0.134-0.549,0.156-3.79,0.156h-3.791L286.038,212.207
			L286.038,212.207z M312.238,212.439c-0.095-0.098-0.086-2.863,0.01-3.004c0.168-0.25,32.345-25.805,32.491-25.805
			c0.086,0,0.187-0.048,0.222-0.107c0.041-0.069,1.59-0.107,4.308-0.106c2.715,0.001,4.187,0.039,4.086,0.104
			c-0.086,0.056-0.133,0.125-0.104,0.153c0.039,0.04-25.579,20.352-34.696,27.508l-1.694,1.33h-2.276
			C313.331,212.511,312.276,212.48,312.238,212.439L312.238,212.439z M328.334,212.322c0.005-0.208,26.015-22.244,26.307-22.289
			c0.159-0.024,0.173,0.819,0.173,11.162c0,10.101-0.017,11.193-0.164,11.251c-0.091,0.037-6.05,0.065-13.243,0.065
			C329.02,212.511,328.33,212.501,328.334,212.322z M283.017,194.908c-8.033-6.173-14.606-11.285-14.606-11.359
			c-0.001-0.107,3.024-0.135,14.776-0.135c13.379,0,14.784,0.016,14.841,0.17c0.035,0.094,0.063,5.21,0.063,11.369v11.198
			l-0.235-0.009C297.718,206.138,291.63,201.529,283.017,194.908L283.017,194.908z M312.168,194.954
			c0-6.159,0.028-11.275,0.063-11.369c0.058-0.154,1.469-0.17,14.911-0.17c11.373,0,14.841,0.03,14.82,0.127
			c-0.04,0.203-29.37,22.611-29.593,22.611C312.171,206.153,312.168,205.949,312.168,194.954L312.168,194.954z"/>
		<path id="path2263" display="none" fill="#015D5D" d="M255.133,260.791c0.086-0.057,0.117-0.104,0.068-0.106
			s8.626-6.89,19.276-15.307l19.366-15.305l2.099,0.028l2.097,0.03v2.035v2.036l-17.353,13.188
			c-9.545,7.254-17.494,13.261-17.664,13.349c-0.257,0.132-0.967,0.159-4.178,0.158C256.308,260.896,255.03,260.859,255.133,260.791
			L255.133,260.791z M266.4,260.738c0.357-0.37,31.438-23.846,31.508-23.8c0.043,0.027,0.079,5.429,0.079,12.005v11.955h-15.871
			C268.04,260.898,266.262,260.881,266.4,260.738z M300.778,260.873c-0.014-0.015-0.049-7.714-0.079-17.108l-0.053-17.082
			l-22.887-0.054c-12.588-0.03-22.899-0.066-22.913-0.082c-0.034-0.034-0.034-10.472,0-10.505c0.014-0.015,10.325-0.05,22.913-0.08
			l22.887-0.056l0.053-16.219c0.03-8.92,0.065-16.231,0.079-16.246c0.033-0.035,8.881-0.035,8.914,0
			c0.014,0.015,0.049,7.326,0.077,16.246l0.054,16.219l22.471,0.056c12.358,0.03,22.48,0.065,22.496,0.08
			c0.014,0.015,0.025,2.378,0.025,5.252c0,2.876-0.012,5.239-0.025,5.253c-0.016,0.015-10.138,0.052-22.496,0.082l-22.471,0.054
			l-0.054,17.082c-0.028,9.394-0.063,17.093-0.077,17.108c-0.014,0.013-2.02,0.025-4.456,0.025
			C302.797,260.898,300.791,260.886,300.778,260.873L300.778,260.873z M312.272,248.943c0-6.576,0.035-11.979,0.079-12.006
			c0.071-0.045,31.258,23.436,31.615,23.805c0.135,0.137-1.812,0.156-15.771,0.156h-15.924V248.943L312.272,248.943z
			 M335.562,245.31c-10.429-8.199-18.978-14.98-18.996-15.07c-0.03-0.143,0.476-0.163,4.185-0.163h4.22l14.739,12.08
			c8.106,6.644,14.821,12.184,14.92,12.312c0.16,0.207,0.181,0.542,0.183,2.99c0.002,2.282-0.022,2.757-0.143,2.757
			C354.59,260.216,345.992,253.509,335.562,245.31L335.562,245.31z M254.82,241.663v-11.478h14.293c8.495,0,14.28,0.041,14.26,0.098
			c-0.034,0.094-28.429,22.857-28.512,22.857C254.838,253.14,254.82,247.975,254.82,241.663L254.82,241.663z M341.572,241.383
			c-7.254-6.05-13.206-11.045-13.225-11.099c-0.021-0.06,5.227-0.099,13.217-0.099h13.25v11.101c0,6.105-0.012,11.099-0.025,11.099
			C354.774,252.383,348.827,247.433,341.572,241.383L341.572,241.383z M270.758,199.881c-8.623-6.946-15.734-12.705-15.805-12.797
			c-0.087-0.116-0.128-0.71-0.13-1.919l-0.003-1.751h1.148c0.725,0,1.234,0.05,1.38,0.135c0.604,0.35,36.675,28.696,36.675,28.82
			c0,0.114-0.725,0.141-3.795,0.141h-3.794L270.758,199.881L270.758,199.881z M312.213,212.371
			c-0.028-0.077-0.039-0.768-0.022-1.532l0.029-1.394l16.058-12.802c8.832-7.042,16.241-12.899,16.468-13.016
			c0.389-0.202,0.628-0.212,4.588-0.205c2.298,0.005,4.118,0.033,4.046,0.063c-0.071,0.03-0.112,0.086-0.091,0.126
			s-8.17,6.558-18.204,14.485l-18.244,14.414h-2.288C312.771,212.511,312.254,212.481,312.213,212.371L312.213,212.371z
			 M254.82,200.968v-11.436l0.266,0.18c0.539,0.365,28.149,22.5,28.183,22.593c0.021,0.059-5.759,0.098-14.207,0.098h-14.241
			L254.82,200.968L254.82,200.968z M328.452,212.305c0.024-0.069,24.694-20.982,26.232-22.236c0.104-0.085,0.13,2.153,0.13,11.114
			v11.221h-13.199C333.628,212.404,328.431,212.364,328.452,212.305z M283.128,194.825c-8.028-6.166-14.642-11.255-14.696-11.311
			c-0.061-0.062,5.579-0.1,14.727-0.1h14.828v11.315c0,8.983-0.027,11.314-0.13,11.311
			C297.785,206.039,291.158,200.991,283.128,194.825z M312.272,194.738v-11.323h14.881c12.463,0,14.856,0.023,14.729,0.145
			c-0.387,0.367-29.322,22.438-29.457,22.467C312.292,206.056,312.272,204.614,312.272,194.738L312.272,194.738z"/>
		<path id="path2261" display="none" fill="#646414" d="M274.437,245.541l19.431-15.358l2.034,0.027l2.033,0.028l0.029,1.892
			c0.027,1.848,0.021,1.896-0.209,2.117c-0.13,0.124-8.063,6.169-17.63,13.438l-17.392,13.213h-3.863h-3.862L274.437,245.541
			L274.437,245.541z M266.4,260.738c0.357-0.37,31.438-23.846,31.508-23.8c0.043,0.027,0.079,5.429,0.079,12.005v11.955h-15.871
			C268.04,260.898,266.262,260.881,266.4,260.738z M300.778,243.737l-0.027-17.161l-22.966-0.027l-22.964-0.027v-5.227v-5.226
			l22.964-0.027l22.965-0.027l0.027-16.3l0.026-16.3l4.431,0h4.431l0.026,16.3l0.027,16.3l22.547,0.027l22.549,0.027v5.226v5.227
			l-22.549,0.027l-22.547,0.027l-0.027,17.162l-0.026,17.161h-4.431h-4.431L300.778,243.737L300.778,243.737z M312.272,248.943
			c0-6.576,0.035-11.979,0.079-12.006c0.071-0.045,31.258,23.436,31.615,23.805c0.135,0.137-1.812,0.156-15.771,0.156h-15.924
			V248.943L312.272,248.943z M335.781,245.347c-10.428-8.198-18.979-14.964-19-15.033c-0.031-0.098,0.939-0.129,4.06-0.129h4.102
			l14.936,12.247l14.937,12.245v2.788c0,1.534-0.016,2.788-0.036,2.788S346.207,253.544,335.781,245.347L335.781,245.347z
			 M254.82,241.663v-11.478h14.293c8.495,0,14.28,0.041,14.26,0.098c-0.034,0.094-28.429,22.857-28.512,22.857
			C254.838,253.14,254.82,247.975,254.82,241.663L254.82,241.663z M341.572,241.383c-7.254-6.05-13.206-11.045-13.225-11.099
			c-0.021-0.06,5.227-0.099,13.216-0.099h13.251v11.101c0,6.105-0.012,11.099-0.025,11.099
			C354.774,252.383,348.827,247.433,341.572,241.383L341.572,241.383z M254.82,200.968v-11.436l0.266,0.18
			c0.539,0.365,28.149,22.5,28.183,22.593c0.021,0.059-5.759,0.098-14.207,0.098h-14.241L254.82,200.968L254.82,200.968z
			 M270.668,199.676l-15.796-12.729l-0.028-1.767l-0.029-1.767h1.145h1.145l18.355,14.393c10.097,7.917,18.357,14.438,18.357,14.495
			c0,0.063-1.431,0.102-3.676,0.102h-3.676L270.668,199.676L270.668,199.676z M312.318,212.263
			c-0.028-0.078-0.039-0.731-0.022-1.455l0.029-1.313l16.368-13.04l16.368-13.04h4.214h4.214l-1.553,1.226
			c-0.854,0.674-9.107,7.197-18.341,14.495l-16.787,13.269h-2.219C312.86,212.404,312.359,212.373,312.318,212.263L312.318,212.263z
			 M328.452,212.305c0.024-0.069,24.694-20.982,26.232-22.236c0.104-0.085,0.13,2.153,0.13,11.114v11.221h-13.199
			C333.628,212.404,328.431,212.364,328.452,212.305z M283.128,194.825c-8.028-6.166-14.642-11.255-14.696-11.311
			c-0.061-0.062,5.579-0.1,14.727-0.1h14.828v11.315c0,8.983-0.027,11.314-0.13,11.311
			C297.785,206.039,291.158,200.991,283.128,194.825L283.128,194.825z M312.272,194.738v-11.323h14.881
			c12.463,0,14.856,0.023,14.729,0.145c-0.387,0.367-29.323,22.438-29.457,22.467C312.292,206.056,312.272,204.614,312.272,194.738
			L312.272,194.738z"/>
		<path id="path2259" display="none" fill="#96961D" d="M274.437,245.541l19.431-15.358l2.034,0.027l2.033,0.028l0.029,1.892
			c0.027,1.848,0.021,1.896-0.209,2.117c-0.13,0.124-8.063,6.169-17.63,13.438l-17.392,13.213h-3.863h-3.862L274.437,245.541
			L274.437,245.541z M266.428,260.758c0.104-0.07,7.161-5.408,15.682-11.858c8.521-6.451,15.554-11.754,15.632-11.785
			c0.118-0.046,0.141,1.869,0.141,11.694c0,6.461,0.029,11.826,0.064,11.919c0.057,0.155-1.379,0.17-15.823,0.164
			C269.794,260.888,266.28,260.857,266.428,260.758L266.428,260.758z M300.778,243.737l-0.027-17.161l-22.966-0.027l-22.964-0.027
			v-5.227v-5.226l22.964-0.027l22.965-0.027l0.027-16.3l0.026-16.3l4.431,0h4.431l0.026,16.3l0.027,16.3l22.547,0.027l22.549,0.027
			v5.226v5.227l-22.549,0.027l-22.547,0.027l-0.027,17.162l-0.026,17.161h-4.431h-4.431L300.778,243.737L300.778,243.737z
			 M312.313,260.729c0.035-0.094,0.063-5.453,0.063-11.909c0-6.455,0.038-11.737,0.084-11.737c0.047,0,7.104,5.297,15.684,11.774
			c8.58,6.476,15.686,11.832,15.791,11.902c0.148,0.099-3.377,0.129-15.747,0.134C313.696,260.898,312.255,260.883,312.313,260.729z
			 M335.781,245.347c-10.428-8.198-18.979-14.964-19-15.033c-0.031-0.098,0.939-0.129,4.06-0.129h4.102l14.936,12.247l14.937,12.245
			v2.788c0,1.534-0.016,2.788-0.036,2.788S346.207,253.544,335.781,245.347L335.781,245.347z M254.82,241.671
			c0-10.45,0.016-11.502,0.165-11.443c0.091,0.035,6.482,0.065,14.205,0.065c13.765,0,14.034,0.004,13.833,0.204
			c-0.114,0.111-6.376,5.137-13.918,11.167c-7.541,6.03-13.84,11.087-13.998,11.239l-0.287,0.277L254.82,241.671L254.82,241.671z
			 M354.658,252.266c-0.057-0.097-5.241-4.457-11.521-9.69c-6.279-5.234-12.145-10.126-13.033-10.873l-1.616-1.357l13.138-0.053
			c7.226-0.03,13.149-0.05,13.164-0.045s0.015,5,0,11.101C354.771,248.797,354.727,252.381,354.658,252.266z M254.82,200.973V189.52
			l0.235,0.221c0.129,0.122,6.405,5.154,13.946,11.185c7.542,6.03,13.805,11.054,13.917,11.167c0.201,0.2-0.066,0.204-13.782,0.204
			c-7.692,0-14.06,0.029-14.151,0.065C254.836,212.421,254.821,211.373,254.82,200.973L254.82,200.973z M270.668,199.676
			l-15.796-12.729l-0.028-1.767l-0.029-1.767h1.145h1.145l18.355,14.393c10.097,7.917,18.357,14.438,18.357,14.495
			c0,0.063-1.431,0.102-3.676,0.102h-3.676L270.668,199.676L270.668,199.676z M312.318,212.263
			c-0.028-0.078-0.039-0.731-0.022-1.455l0.029-1.313l16.368-13.04l16.368-13.04h4.214h4.214l-1.553,1.226
			c-0.854,0.674-9.107,7.197-18.341,14.495l-16.787,13.269h-2.219C312.86,212.404,312.359,212.373,312.318,212.263L312.318,212.263z
			 M341.628,212.296l-13.027-0.054l0.567-0.497c0.313-0.273,6.152-5.216,12.977-10.984c6.825-5.768,12.466-10.563,12.536-10.657
			c0.099-0.134,0.128,2.211,0.131,11.064c0.001,6.179-0.033,11.223-0.076,11.209C354.693,212.363,348.795,212.327,341.628,212.296
			L341.628,212.296z M283.286,194.827c-7.943-6.105-14.559-11.159-14.703-11.23c-0.204-0.1,2.983-0.134,14.537-0.156
			c8.138-0.015,14.8-0.015,14.806,0c0.056,0.168-0.065,22.496-0.122,22.492C297.762,205.93,291.228,200.933,283.286,194.827
			L283.286,194.827z M312.352,194.712c-0.015-6.184-0.023-11.256-0.019-11.271s6.69-0.015,14.858,0
			c9.115,0.017,14.769,0.065,14.641,0.126c-0.114,0.054-6.744,5.098-14.732,11.208c-7.989,6.11-14.568,11.125-14.623,11.144
			C312.415,205.942,312.368,201.697,312.352,194.712z"/>
		<path id="path2257" display="none" fill="#01A5A5" d="M274.437,245.541l19.431-15.358l2.034,0.027l2.033,0.028l0.029,1.892
			c0.027,1.848,0.021,1.896-0.209,2.117c-0.13,0.124-8.063,6.169-17.63,13.438l-17.392,13.213h-3.863h-3.862L274.437,245.541
			L274.437,245.541z M266.342,260.791c0.035-0.06,0.144-0.109,0.241-0.111c0.097-0.001,7.144-5.281,15.66-11.735l15.484-11.732
			l0.027,11.735c0.016,7.699,0.061,11.736,0.13,11.736c0.057,0,0.103,0.047,0.103,0.107c0,0.072-5.354,0.107-15.854,0.107
			C271.589,260.898,266.298,260.863,266.342,260.791L266.342,260.791z M300.777,243.737l-0.027-17.161l-22.965-0.027l-22.964-0.027
			l0-5.227v-5.226l22.964-0.027l22.965-0.027l0.027-16.3l0.026-16.3l4.431,0h4.431l0.025,16.3l0.027,16.3l22.548,0.027l22.549,0.027
			v5.226v5.227l-22.549,0.027l-22.548,0.027l-0.027,17.162l-0.025,17.161h-4.431h-4.431L300.777,243.737L300.777,243.737z
			 M312.272,260.791c0-0.06,0.047-0.107,0.104-0.107c0.067,0,0.112-4.037,0.13-11.737l0.026-11.736l15.536,11.735
			c8.544,6.454,15.616,11.735,15.712,11.736c0.097,0.001,0.206,0.05,0.241,0.11c0.043,0.072-5.264,0.107-15.843,0.107
			C317.644,260.898,312.272,260.863,312.272,260.791L312.272,260.791z M335.781,245.347c-10.429-8.198-18.979-14.964-19.001-15.033
			c-0.031-0.098,0.94-0.129,4.061-0.129h4.101l14.937,12.247l14.937,12.245v2.788c0,1.534-0.017,2.788-0.037,2.788
			S346.207,253.544,335.781,245.347L335.781,245.347z M254.82,241.669c0-7.585,0.035-11.485,0.104-11.485
			c0.058,0,0.104,0.049,0.104,0.109c0,0.07,4.773,0.115,13.957,0.134l13.956,0.027l-13.95,11.153
			c-7.672,6.134-13.953,11.212-13.956,11.282c-0.004,0.071-0.054,0.159-0.111,0.194C254.855,253.13,254.82,249.297,254.82,241.669
			L254.82,241.669z M354.676,252.22c-0.046-0.121-5.897-5.066-13.003-10.992l-12.92-10.773l12.894-0.027
			c9.994-0.022,12.911-0.057,12.973-0.159c0.043-0.072,0.104-0.105,0.137-0.071c0.031,0.033,0.047,5.05,0.03,11.151
			C354.772,247.448,354.721,252.341,354.676,252.22z M254.82,200.98v-11.423l0.399,0.404c0.22,0.222,6.523,5.302,14.009,11.289
			l13.609,10.884l-13.905,0.027c-9.148,0.018-13.904,0.064-13.904,0.134c0,0.059-0.047,0.107-0.104,0.107
			C254.855,212.404,254.82,208.524,254.82,200.98L254.82,200.98z M270.668,199.676l-15.796-12.729l-0.028-1.767l-0.028-1.767h1.145
			h1.145l18.355,14.393c10.097,7.917,18.357,14.438,18.357,14.495c0,0.063-1.431,0.102-3.676,0.102h-3.676L270.668,199.676
			L270.668,199.676z M312.318,212.263c-0.028-0.078-0.039-0.731-0.023-1.455l0.03-1.313l16.368-13.04l16.368-13.04h4.214h4.213
			l-1.553,1.226c-0.854,0.674-9.107,7.197-18.34,14.495l-16.788,13.269h-2.218C312.86,212.404,312.359,212.373,312.318,212.263
			L312.318,212.263z M354.605,212.296c0-0.07-4.414-0.117-12.878-0.134l-12.878-0.027l12.877-10.884
			c7.082-5.987,12.877-10.943,12.877-11.013c0.002-0.071,0.049-0.158,0.106-0.195c0.069-0.044,0.104,3.699,0.104,11.147
			c0,7.404-0.035,11.214-0.104,11.214C354.652,212.404,354.605,212.355,354.605,212.296z M283.389,194.759
			c-7.885-6.061-14.467-11.05-14.625-11.088c-0.159-0.038-0.314-0.111-0.345-0.163c-0.031-0.053,6.372-0.094,14.756-0.094
			c9.806,0,14.813,0.036,14.813,0.107c0,0.06-0.046,0.108-0.104,0.108c-0.068,0-0.114,3.816-0.13,11.074l-0.027,11.075
			L283.389,194.759L283.389,194.759z M312.481,194.739c0-7.334-0.035-11.109-0.104-11.109c-0.058,0-0.104-0.048-0.104-0.108
			c0-0.071,5.024-0.107,14.864-0.107c9.883,0,14.843,0.036,14.801,0.107c-0.036,0.06-0.152,0.108-0.261,0.108
			c-0.147,0-26.579,20.097-28.805,21.901l-0.391,0.318V194.739L312.481,194.739z"/>
		<path id="path2255" fill="#0000FF" d="M255.341,260.703c0.201-0.104,8.969-6.99,19.484-15.302l19.12-15.113l1.942,0.03
			l1.942,0.028l0.028,1.839l0.029,1.838l-17.509,13.302c-9.631,7.317-17.502,13.353-17.494,13.411
			c0.01,0.07-1.376,0.117-3.946,0.132C255.096,260.892,254.987,260.886,255.341,260.703L255.341,260.703z M266.342,260.791
			c0.035-0.06,0.144-0.109,0.241-0.111c0.097-0.001,7.144-5.281,15.66-11.735l15.484-11.732l0.027,11.735
			c0.016,7.699,0.061,11.736,0.13,11.736c0.057,0,0.103,0.047,0.103,0.107c0,0.072-5.354,0.107-15.854,0.107
			C271.589,260.898,266.298,260.863,266.342,260.791L266.342,260.791z M300.854,243.683v-17.216h-23.017H254.82l0-5.172v-5.173
			h23.017h23.018v-16.353v-16.354l4.379,0h4.379v16.354v16.353h22.601h22.601v5.173v5.172h-22.601h-22.601v17.216v17.216h-4.379
			h-4.379V243.683L300.854,243.683z M312.272,260.791c0-0.06,0.047-0.107,0.104-0.107c0.067,0,0.112-4.037,0.13-11.737l0.026-11.736
			l15.536,11.735c8.545,6.454,15.616,11.735,15.713,11.736c0.096,0.001,0.205,0.05,0.24,0.11c0.043,0.072-5.264,0.107-15.843,0.107
			C317.644,260.898,312.272,260.863,312.272,260.791L312.272,260.791z M354.605,260.068c-0.086-0.124-8.508-6.784-18.716-14.799
			s-18.652-14.665-18.766-14.775c-0.201-0.197-0.112-0.201,3.769-0.201h3.973l14.842,12.168
			c8.163,6.692,14.879,12.146,14.924,12.118c0.164-0.106,0.187,0.296,0.159,2.975C354.765,260.022,354.745,260.272,354.605,260.068
			L354.605,260.068z M254.82,241.669c0-7.585,0.035-11.485,0.104-11.485c0.058,0,0.104,0.049,0.104,0.109
			c0,0.07,4.773,0.115,13.957,0.134l13.956,0.027l-13.95,11.153c-7.672,6.134-13.953,11.212-13.956,11.282
			c-0.004,0.071-0.053,0.159-0.111,0.194C254.855,253.13,254.82,249.297,254.82,241.669L254.82,241.669z M354.676,252.22
			c-0.046-0.121-5.897-5.066-13.003-10.992l-12.92-10.773l12.894-0.027c9.994-0.022,12.911-0.057,12.973-0.159
			c0.044-0.072,0.104-0.105,0.137-0.071c0.032,0.033,0.047,5.05,0.03,11.151C354.772,247.448,354.721,252.341,354.676,252.22z
			 M254.82,200.98v-11.423l0.399,0.404c0.22,0.222,6.523,5.302,14.009,11.289l13.609,10.884l-13.905,0.027
			c-9.148,0.018-13.904,0.064-13.904,0.134c0,0.059-0.047,0.107-0.104,0.107C254.855,212.404,254.82,208.524,254.82,200.98
			L254.82,200.98z M354.605,212.296c0-0.07-4.413-0.117-12.878-0.134l-12.878-0.027l12.877-10.884
			c7.083-5.987,12.877-10.943,12.877-11.013c0.002-0.071,0.049-0.158,0.106-0.195c0.069-0.044,0.104,3.699,0.104,11.147
			c0,7.404-0.035,11.214-0.104,11.214C354.652,212.404,354.605,212.355,354.605,212.296z M270.828,199.637
			c-8.642-6.963-15.767-12.649-15.834-12.636c-0.089,0.018-0.13-0.472-0.151-1.784l-0.028-1.809l1.228,0.03
			c0.744,0.019,1.221,0.073,1.21,0.138c-0.009,0.059,8.147,6.508,18.126,14.331c9.979,7.823,18.165,14.26,18.192,14.306
			c0.027,0.045-1.544,0.083-3.491,0.083h-3.54L270.828,199.637L270.828,199.637z M312.446,212.225
			c-0.038-0.04-0.069-0.643-0.069-1.338v-1.266l16.136-12.846c8.874-7.064,16.23-12.96,16.348-13.102l0.213-0.258l4.22,0.004
			c4.101,0.004,4.208,0.009,3.854,0.194c-0.201,0.104-8.475,6.601-18.388,14.437l-18.023,14.247h-2.109
			C313.464,212.296,312.484,212.264,312.446,212.225L312.446,212.225z M283.389,194.759c-7.885-6.061-14.467-11.05-14.625-11.088
			c-0.159-0.038-0.314-0.111-0.345-0.163c-0.031-0.053,6.372-0.094,14.756-0.094c9.806,0,14.813,0.036,14.813,0.107
			c0,0.06-0.046,0.108-0.104,0.108c-0.068,0-0.114,3.816-0.13,11.074l-0.027,11.075L283.389,194.759z M312.481,194.739
			c0-7.334-0.035-11.109-0.104-11.109c-0.058,0-0.104-0.048-0.104-0.108c0-0.071,5.024-0.107,14.864-0.107
			c9.883,0,14.843,0.036,14.801,0.107c-0.036,0.06-0.152,0.108-0.261,0.108c-0.147,0-26.579,20.097-28.805,21.901l-0.391,0.318
			V194.739L312.481,194.739z"/>
		<path id="path2253" fill="#FF0000" d="M255.341,260.703c0.201-0.104,8.969-6.99,19.484-15.302l19.12-15.113l1.942,0.03
			l1.942,0.028l0.028,1.839l0.029,1.838l-17.509,13.302c-9.631,7.317-17.502,13.353-17.494,13.411
			c0.01,0.07-1.376,0.117-3.946,0.132C255.096,260.892,254.987,260.886,255.341,260.703L255.341,260.703z M300.854,243.683v-17.216
			h-23.017H254.82l0-5.172v-5.173h23.017h23.017v-16.353v-16.354l4.379,0h4.38v16.354v16.353h22.6h22.601v5.173v5.172h-22.601h-22.6
			v17.216v17.216h-4.38h-4.379L300.854,243.683L300.854,243.683z M354.604,260.068c-0.085-0.124-8.507-6.784-18.715-14.799
			c-10.209-8.016-18.653-14.665-18.766-14.775c-0.201-0.197-0.113-0.201,3.768-0.201h3.974l14.841,12.168
			c8.164,6.692,14.88,12.146,14.924,12.118c0.165-0.106,0.187,0.296,0.159,2.975C354.764,260.022,354.745,260.272,354.604,260.068
			L354.604,260.068z M270.827,199.637c-8.641-6.963-15.766-12.649-15.834-12.636c-0.089,0.018-0.13-0.472-0.151-1.784l-0.029-1.809
			l1.228,0.03c0.744,0.019,1.221,0.073,1.21,0.138c-0.009,0.059,8.147,6.508,18.126,14.331c9.979,7.823,18.165,14.26,18.192,14.306
			c0.027,0.045-1.544,0.083-3.491,0.083h-3.54L270.827,199.637L270.827,199.637z M312.445,212.225
			c-0.038-0.04-0.069-0.643-0.069-1.338v-1.266l16.136-12.846c8.874-7.064,16.231-12.96,16.348-13.102l0.214-0.258l4.219,0.004
			c4.101,0.004,4.208,0.009,3.854,0.194c-0.201,0.104-8.475,6.601-18.388,14.437l-18.022,14.247h-2.109
			C313.463,212.296,312.483,212.264,312.445,212.225L312.445,212.225z"/>
	</g>
</g>
</svg>
