<?xml version="1.0" encoding="utf-8"?>
<!-- Generator: Adobe Illustrator 15.0.0, SVG Export Plug-In . SVG Version: 6.00 Build 0)  -->
<!DOCTYPE svg PUBLIC "-//W3C//DTD SVG 1.1//EN" "http://www.w3.org/Graphics/SVG/1.1/DTD/svg11.dtd">
<svg version="1.1" xmlns="http://www.w3.org/2000/svg" xmlns:xlink="http://www.w3.org/1999/xlink" x="0px" y="0px" width="1000px"
	 height="973.904px" viewBox="0 0 1000 973.904" enable-background="new 0 0 1000 973.904" xml:space="preserve">
<g id="Background">
	<g>
		<path fill="#F4F7FA" d="M516.149-0.853C260.455-8.299,38.969,174.667,5.506,414.743
			c-36.586,262.49,164.782,498.667,412.557,536.494c308.188,47.052,607.116-225.145,580.276-520.434
			C978.118,208.326,776.068,6.716,516.149-0.853z"/>
		<g>
			<g>
				<g>
					<g>
						<path fill="#97A6B7" d="M606.265,267.665l-28.317,0.048c-1.95-18.705-6.448-36.661-13.14-53.53l23.941-13.885
							c6.545-3.795,8.781-12.354,5.01-19.136l-10.061-18.093c-3.795-6.825-12.223-9.331-18.834-5.578l-23.645,13.42
							c-11.005-15.421-24.139-29.325-39.016-41.284l13.601-23.362c3.901-6.703,1.587-15.524-5.183-19.725l-18.101-11.23
							c-6.844-4.245-15.622-2.238-19.597,4.504l-13.63,23.123c-17.514-8.158-36.439-14.043-56.402-17.2v-27.42
							c0-8.089-6.655-14.95-14.889-15.326l-22.038-1.006c-8.339-0.381-15.123,5.939-15.123,14.117v27.722
							c-20.576,1.715-40.413,6.34-59.061,13.498l-14.711-25.062c-4.322-7.365-13.924-10.22-21.459-6.356L235.458,76.24
							c-7.621,3.909-10.237,13.106-5.83,20.521l15.242,25.64c-16.682,11.794-31.596,25.914-44.228,41.922l-27.57-15.597
							c-7.817-4.423-17.847-2.13-22.39,5.145l-12.121,19.412c-4.572,7.324-1.857,16.828,6.049,21.203l28.528,15.787
							c-7.91,18.217-13.253,37.746-15.578,58.164l-34.22,0.059c-9.209,0.016-16.701,6.996-16.701,15.591v22.857
							c0,8.595,7.491,15.469,16.701,15.354l35.128-0.437c2.966,19.94,8.824,38.923,17.148,56.546l-31.006,17.598
							c-7.906,4.487-10.621,14.03-6.049,21.289l12.121,19.24c4.542,7.21,14.573,9.361,22.39,4.829l31.36-18.188
							c12.531,14.82,27.104,27.842,43.275,38.681l-18.081,30.671c-4.407,7.477-1.791,16.637,5.83,20.438l20.154,10.051
							c7.535,3.758,17.137,0.766,21.459-6.66l17.931-30.802c17.707,6.245,36.445,10.209,55.84,11.577v34.34
							c0,8.176,6.784,14.4,15.123,13.902l22.038-1.319c8.234-0.491,14.889-7.448,14.889-15.534v-33.967
							c18.826-3.219,36.729-8.85,53.395-16.51l16.637,27.986c3.976,6.685,12.753,8.568,19.597,4.225l18.101-11.484
							c6.77-4.297,9.084-13.151,5.183-19.8l-16.15-27.514c14.455-11.44,27.325-24.675,38.273-39.313l26.937,14.906
							c6.611,3.659,15.039,1.034,18.834-5.845l10.061-18.236c3.771-6.835,1.535-15.363-5.01-19.065l-26.047-14.737
							c7.055-16.549,11.992-34.166,14.482-52.516l29.08-0.361c7.496-0.093,13.555-6.426,13.555-14.145v-20.527
							C619.819,273.898,613.761,267.651,606.265,267.665z M377.01,436.646c-83.792,3.109-153.914-61.922-153.914-145.352
							c0-83.43,70.122-149.357,153.914-147.319c80.943,1.969,144.572,67.045,144.572,145.412
							C521.582,367.752,457.954,433.642,377.01,436.646z"/>
						<polygon fill="#97A6B7" points="283.25,64.829 263.082,64.134 256.127,82.216 						"/>
						<polygon fill="#97A6B7" points="483.239,73.175 506.497,73.406 506.497,90.561 						"/>
						<polygon fill="#97A6B7" points="571.872,155.927 595.054,156.863 589.259,169.845 						"/>
						<polygon fill="#97A6B7" points="608.268,267.907 631.682,269.762 624.032,281.121 						"/>
						<polygon fill="#97A6B7" points="569.322,428.561 592.04,431.806 594.823,413.26 						"/>
						<polygon fill="#97A6B7" points="482.387,512.248 502.788,515.957 504.411,500.889 						"/>
						<polygon fill="#97A6B7" points="380.385,548.414 362.071,545.168 377.835,521.755 						"/>
						<polygon fill="#97A6B7" points="281.165,528.709 259.836,524.304 276.296,504.367 						"/>
						<polygon fill="#97A6B7" points="161.311,146.663 183.566,147.358 174.757,163.585 						"/>
						<polygon fill="#97A6B7" points="117.033,321.226 137.434,324.24 135.811,307.549 						"/>
						<polygon fill="#97A6B7" points="160.848,443.397 180.785,446.643 182.407,433.429 						"/>
					</g>
					<path fill="#D8DEE8" d="M629.144,269.503l-28.553,0.049c-1.968-18.858-6.501-36.96-13.249-53.966l24.142-13.999
						c6.598-3.826,8.854-12.454,5.051-19.292l-10.145-18.241c-3.826-6.88-12.322-9.407-18.99-5.623l-23.84,13.529
						c-11.097-15.547-24.34-29.565-39.339-41.621l13.713-23.551c3.935-6.757,1.6-15.652-5.227-19.885l-18.25-11.323
						c-6.899-4.279-15.751-2.257-19.759,4.541l-13.745,23.311c-17.658-8.225-36.742-14.158-56.869-17.34V58.45
						c0-8.156-6.709-15.073-15.012-15.451l-22.221-1.014c-8.408-0.384-15.247,5.988-15.247,14.232v27.947
						c-20.748,1.729-40.749,6.392-59.551,13.608l-14.833-25.266c-4.359-7.425-14.04-10.303-21.637-6.408l-20.321,10.421
						c-7.684,3.94-10.322,13.213-5.878,20.688l15.369,25.849c-16.821,11.89-31.858,26.125-44.595,42.264l-27.798-15.725
						c-7.881-4.458-17.995-2.147-22.575,5.188l-12.22,19.57c-4.611,7.384-1.874,16.965,6.098,21.376l28.764,15.915
						c-7.976,18.366-13.363,38.053-15.708,58.637l-34.503,0.06c-9.287,0.016-16.838,7.053-16.838,15.718v23.044
						c0,8.665,7.552,15.595,16.838,15.48l35.419-0.441c2.99,20.103,8.897,39.241,17.29,57.008l-31.263,17.741
						c-7.972,4.524-10.709,14.144-6.098,21.462l12.22,19.397c4.58,7.269,14.694,9.438,22.575,4.868l31.621-18.335
						c12.634,14.941,27.329,28.069,43.634,38.995l-18.23,30.922c-4.444,7.537-1.806,16.772,5.878,20.604l20.32,10.133
						c7.598,3.787,17.279,0.771,21.638-6.715l18.081-31.053c17.853,6.297,36.746,10.291,56.303,11.672v34.617
						c0,8.245,6.839,14.52,15.247,14.016l22.221-1.328c8.302-0.496,15.012-7.508,15.012-15.663v-34.24
						c18.982-3.245,37.034-8.925,53.839-16.646l16.775,28.213c4.008,6.742,12.859,8.639,19.759,4.261l18.25-11.579
						c6.826-4.332,9.161-13.258,5.227-19.96l-16.284-27.738c14.575-11.533,27.551-24.876,38.591-39.634l27.159,15.028
						c6.668,3.689,15.164,1.042,18.99-5.892l10.145-18.385c3.803-6.892,1.547-15.488-5.051-19.22l-26.264-14.857
						c7.113-16.683,12.092-34.443,14.604-52.943l29.32-0.365c7.557-0.094,13.666-6.478,13.666-14.26V283.57
						C642.81,275.788,636.7,269.49,629.144,269.503z M397.989,439.861C313.502,442.996,242.8,377.435,242.8,293.324
						c0-84.109,70.703-150.574,155.189-148.519c81.615,1.985,145.768,67.592,145.768,146.596
						C543.757,370.406,479.604,436.833,397.989,439.861z"/>
				</g>
			</g>
			<g>
				<g>
					<g>
						<path fill="#97A6B7" d="M895.056,269.688l-15.234-2.833c0.84-10.256,0.235-20.367-1.66-30.115l14.276-5.05
							c3.903-1.38,5.972-5.757,4.626-9.786l-3.584-10.747c-1.352-4.053-5.63-6.252-9.564-4.901l-14.07,4.83
							c-4.361-9.404-10.021-18.208-16.814-26.142l9.672-11.19c2.775-3.211,2.422-8.189-0.795-11.131l-8.602-7.868
							c-3.25-2.974-8.174-2.781-10.992,0.444l-9.665,11.059c-8.595-6.155-18.181-11.23-28.598-14.944l2.771-14.747
							c0.815-4.35-2.07-8.712-6.461-9.745l-11.748-2.765c-4.448-1.047-8.734,1.667-9.56,6.065l-2.8,14.908
							c-11.238-1.156-22.373-0.67-33.126,1.296l-5.38-14.963c-1.582-4.397-6.457-6.902-10.9-5.585l-11.881,3.524
							c-4.494,1.333-6.829,6.015-5.207,10.448l5.607,15.328c-10.162,4.658-19.607,10.746-28.018,18.08l-13.252-11.172
							c-3.758-3.167-9.383-2.947-12.562,0.507l-8.478,9.216c-3.199,3.478-2.699,8.862,1.111,12.014l13.749,11.371
							c-6.093,8.998-10.938,18.96-14.249,29.707l-18.41-3.423c-4.955-0.921-9.688,2.076-10.557,6.698l-2.307,12.292
							c-0.869,4.623,2.467,9.076,7.43,9.944l18.938,3.311c-0.418,11.023,0.814,21.824,3.512,32.143l-18.451,6.333
							c-4.705,1.615-7.129,6.473-5.4,10.839l4.576,11.57c1.713,4.337,6.891,6.506,11.551,4.857l18.702-6.615
							c5.242,9.236,11.765,17.71,19.368,25.171l-12.818,14.669c-3.127,3.576-2.645,8.767,1.071,11.58l9.821,7.439
							c3.674,2.782,9.141,2.143,12.215-1.414l12.753-14.754c8.892,5.146,18.569,9.169,28.862,11.863l-3.467,18.467
							c-0.826,4.398,2.193,8.43,6.729,9.004l11.984,1.517c4.478,0.566,8.76-2.502,9.576-6.853l3.43-18.266
							c10.448,0.17,20.646-1.052,30.383-3.488l6.12,16.73c1.464,3.997,5.995,5.896,10.113,4.252l10.894-4.351
							c4.076-1.626,6.214-6.155,4.786-10.124l-5.907-16.427c8.93-4.694,17.188-10.511,24.553-17.278l12.982,10.736
							c3.186,2.635,7.981,2.074,10.718-1.242l7.252-8.792c2.718-3.295,2.376-8.107-0.769-10.758l-12.52-10.556
							c5.465-8.188,9.897-17.163,13.089-26.78l15.677,2.741c4.039,0.706,7.938-2.087,8.717-6.239l2.072-11.04
							C901.716,274.409,899.089,270.438,895.056,269.688z M754.704,337.419c-45.379-6.788-76.523-48.841-68.1-93.709
							c8.426-44.868,52.79-73.244,97.648-63.688c43.332,9.231,70.98,50.652,63.068,92.798S798.538,343.976,754.704,337.419z"/>
						<polygon fill="#97A6B7" points="741.821,127.991 731.044,125.581 725.478,134.604 						"/>
						<polygon fill="#97A6B7" points="848.53,152.671 861.015,155.145 859.284,164.37 						"/>
						<polygon fill="#97A6B7" points="887.841,206.123 900.214,208.968 895.786,215.365 						"/>
						<polygon fill="#97A6B7" points="896.11,270.021 908.513,273.382 903.253,278.719 						"/>
						<polygon fill="#97A6B7" points="858.944,352.487 870.834,356.527 874.202,346.833 						"/>
						<polygon fill="#97A6B7" points="803.741,388.718 814.339,392.772 816.732,384.832 						"/>
						<polygon fill="#97A6B7" points="745.233,397.868 735.712,394.273 746.555,383.273 						"/>
						<polygon fill="#97A6B7" points="693.862,377.253 682.837,372.731 693.702,363.671 						"/>
						<polygon fill="#97A6B7" points="667.979,159.689 679.877,162.311 673.501,170.148 						"/>
						<polygon fill="#97A6B7" points="626.543,249.099 637.208,252.779 638.021,243.639 						"/>
						<polygon fill="#97A6B7" points="637.771,319.226 648.164,322.983 650.37,316.041 						"/>
					</g>
					<path fill="#D8DEE8" d="M907.175,272.986l-15.361-2.856c0.847-10.34,0.236-20.533-1.675-30.36l14.396-5.09
						c3.936-1.392,6.02-5.804,4.664-9.866l-3.614-10.833c-1.363-4.087-5.678-6.303-9.645-4.942l-14.188,4.869
						c-4.397-9.482-10.104-18.357-16.954-26.355l9.752-11.281c2.799-3.237,2.442-8.256-0.801-11.222l-8.674-7.931
						c-3.275-2.999-8.242-2.805-11.084,0.446l-9.745,11.149c-8.667-6.206-18.329-11.323-28.834-15.067l2.792-14.866
						c0.823-4.386-2.086-8.784-6.514-9.825l-11.848-2.789c-4.484-1.055-8.805,1.681-9.637,6.115l-2.822,15.03
						c-11.331-1.166-22.56-0.677-33.4,1.306l-5.425-15.085c-1.595-4.434-6.511-6.959-10.989-5.63l-11.98,3.552
						c-4.531,1.343-6.887,6.064-5.25,10.533l5.654,15.453c-10.246,4.696-19.77,10.833-28.25,18.227l-13.361-11.263
						c-3.789-3.193-9.461-2.972-12.666,0.511l-8.546,9.29c-3.225,3.505-2.723,8.935,1.12,12.112l13.863,11.463
						c-6.144,9.072-11.029,19.115-14.367,29.949l-18.562-3.451c-4.995-0.93-9.769,2.093-10.644,6.753l-2.327,12.393
						c-0.874,4.659,2.488,9.149,7.494,10.025l19.093,3.339c-0.422,11.113,0.822,22.001,3.543,32.404l-18.605,6.385
						c-4.744,1.628-7.186,6.525-5.447,10.926l4.614,11.666c1.729,4.372,6.95,6.558,11.649,4.897l18.857-6.668
						c5.285,9.311,11.862,17.854,19.529,25.377l-12.927,14.788c-3.15,3.605-2.665,8.839,1.081,11.675l9.904,7.501
						c3.704,2.804,9.215,2.16,12.315-1.426l12.858-14.875c8.966,5.188,18.723,9.245,29.102,11.961l-3.494,18.617
						c-0.834,4.434,2.212,8.499,6.783,9.078l12.086,1.529c4.514,0.571,8.83-2.522,9.652-6.908l3.458-18.416
						c10.536,0.172,20.817-1.059,30.634-3.516l6.175,16.867c1.474,4.03,6.042,5.944,10.194,4.287l10.986-4.385
						c4.107-1.64,6.264-6.206,4.824-10.207l-5.957-16.562c9.002-4.731,17.329-10.596,24.756-17.418l13.088,10.824
						c3.214,2.657,8.051,2.091,10.809-1.252l7.313-8.862c2.74-3.322,2.395-8.174-0.776-10.847l-12.624-10.641
						c5.508-8.254,9.979-17.304,13.197-26.999l15.807,2.764c4.073,0.713,8.004-2.104,8.789-6.289l2.09-11.129
						C913.89,277.747,911.239,273.743,907.175,272.986z M765.661,341.266c-45.754-6.844-77.157-49.242-68.665-94.475
						c8.491-45.233,53.226-73.839,98.454-64.204c43.692,9.308,71.57,51.068,63.594,93.556S809.858,347.878,765.661,341.266z"/>
				</g>
			</g>
		</g>
		<g>
			<linearGradient id="SVGID_1_" gradientUnits="userSpaceOnUse" x1="153.4834" y1="518.8125" x2="298.7611" y2="503.6342">
				<stop  offset="0.0036" style="stop-color:#26264F"/>
				<stop  offset="1" style="stop-color:#444B8C"/>
			</linearGradient>
			<path fill="url(#SVGID_1_)" d="M93.621,820.85c-17.356,1.014-31.543-11.119-31.543-27.049V219.62
				c0-15.932,14.187-28.377,31.543-27.748l819.221,29.728c13.272,0.481,24.026,12.134,24.026,25.975v498.903
				c0,13.844-10.754,25.731-24.026,26.507L93.621,820.85z"/>
			<linearGradient id="SVGID_2_" gradientUnits="userSpaceOnUse" x1="463.1719" y1="962.6436" x2="493.9519" y2="918.5532">
				<stop  offset="0" style="stop-color:#444B8C"/>
				<stop  offset="0.9964" style="stop-color:#26264F"/>
			</linearGradient>
			<path fill="url(#SVGID_2_)" d="M627.72,884.402c-13.094-4.557-22.881-16.216-25.639-30.546l-19.059-98.962l-163.027,6.074
				l-20.064,103.094c-2.81,14.439,8.438,28.926,21.393,34.242l68.207,28c12.685,5.207,26.321,7.281,39.876,6.064l144.145-12.937
				c4.215-0.38,7.594-3.854,8.084-8.313s3.443-9.464-0.576-10.862L627.72,884.402z"/>
			<linearGradient id="SVGID_3_" gradientUnits="userSpaceOnUse" x1="556.3477" y1="951.3398" x2="509.2397" y2="695.6118">
				<stop  offset="0" style="stop-color:#444B8C"/>
				<stop  offset="0.9964" style="stop-color:#26264F"/>
			</linearGradient>
			<path fill="url(#SVGID_3_)" d="M629.333,878.382c-13.081-4.498-22.858-16.011-25.614-30.161l-19.038-97.718l-159.053,6.005
				l-20.044,101.799c-2.807,14.256,4.62,28.553,17.562,33.805l68.139,27.647c12.672,5.143,26.295,7.19,39.835,5.989l144.001-12.774
				c4.209-0.374,7.585-3.806,8.074-8.207c0.492-4.403-2.041-8.558-6.056-9.94L629.333,878.382z"/>
			<g>
				<g>
					<linearGradient id="SVGID_4_" gradientUnits="userSpaceOnUse" x1="672.5566" y1="245.3833" x2="908.2999" y2="-91.0767">
						<stop  offset="0" style="stop-color:#444B8C"/>
						<stop  offset="0.9964" style="stop-color:#26264F"/>
					</linearGradient>
					<path fill="url(#SVGID_4_)" d="M100.106,820.85c-17.355,1.014-31.542-11.119-31.542-27.049V219.62
						c0-15.932,14.187-28.377,31.542-27.748l819.223,29.728c13.271,0.481,24.025,12.134,24.025,25.975v498.903
						c0,13.844-10.754,25.731-24.025,26.507L100.106,820.85z"/>
					<linearGradient id="SVGID_5_" gradientUnits="userSpaceOnUse" x1="570.166" y1="285.332" x2="275.2823" y2="1221.9231">
						<stop  offset="0" style="stop-color:#444B8C"/>
						<stop  offset="0.9964" style="stop-color:#26264F"/>
					</linearGradient>
					<path fill="url(#SVGID_5_)" d="M919.329,233.334l-819.222-28.076c-9.281-0.318-16.823,6.322-16.823,14.832v446.722v126.191
						c0,8.51,7.542,14.982,16.823,14.459l819.222-46.211c7.111-0.4,12.865-6.746,12.865-14.169V633.066V247.219
						C932.194,239.794,926.44,233.579,919.329,233.334z"/>
					<path fill="#FFFFFF" d="M100.106,758.647c-3.613,0.177-6.555-2.372-6.555-5.684V220.418c0-3.31,2.942-5.908,6.555-5.789
						l819.223,26.92c2.773,0.091,5.027,2.522,5.027,5.419v465.989c0,2.896-2.254,5.363-5.027,5.501L100.106,758.647z"/>
				</g>
				<g>
					<linearGradient id="SVGID_6_" gradientUnits="userSpaceOnUse" x1="586.1504" y1="342.6646" x2="309.7021" y2="912.6959">
						<stop  offset="0.0036" style="stop-color:#E38DDD"/>
						<stop  offset="1" style="stop-color:#9571F6"/>
					</linearGradient>
					<polygon fill="url(#SVGID_6_)" points="891.431,689.742 136.042,722.916 136.042,294.219 891.431,310.075 					"/>
					<linearGradient id="SVGID_7_" gradientUnits="userSpaceOnUse" x1="513.1484" y1="274.894" x2="496.8357" y2="409.9261">
						<stop  offset="0" style="stop-color:#FF9085"/>
						<stop  offset="1" style="stop-color:#FB6FBB"/>
					</linearGradient>
					<polygon fill="url(#SVGID_7_)" points="891.431,297.104 136.042,279.575 136.042,242.962 891.431,264.68 					"/>
					<g>
						<path fill="#FFFFFF" d="M834.058,279.401c0,2.315-1.824,4.146-4.074,4.089c-2.252-0.057-4.078-1.983-4.078-4.301
							c0-2.318,1.826-4.149,4.078-4.089C832.233,275.162,834.058,277.086,834.058,279.401z"/>
						<path fill="#FFFFFF" d="M850.774,279.836c0,2.309-1.813,4.134-4.05,4.078c-2.24-0.057-4.057-1.977-4.057-4.289
							s1.816-4.137,4.057-4.077C848.962,275.607,850.774,277.527,850.774,279.836z"/>
						<path fill="#FFFFFF" d="M867.398,280.268c0,2.303-1.803,4.123-4.026,4.067c-2.229-0.056-4.034-1.971-4.034-4.276
							c0-2.306,1.806-4.126,4.034-4.067C865.596,276.052,867.398,277.966,867.398,280.268z"/>
					</g>
					<g opacity="0.68">
						<polygon fill="#FFFFFF" points="738.544,621.322 152.519,639.724 152.519,305.355 738.544,316.697 						"/>
					</g>
					<g>
						<g>
							<polygon opacity="0.68" fill="#FFFFFF" points="883.362,405.255 748.793,404.621 748.793,316.895 883.362,319.499 							"/>
						</g>
						<polygon fill="#FFFFFF" points="883.362,420.964 748.793,420.691 748.793,414.123 883.362,414.543 						"/>
						<polygon fill="#FFFFFF" points="833.29,432.049 748.793,432.038 748.793,425.469 833.29,425.572 						"/>
					</g>
					<g>
						<g>
							<polygon opacity="0.68" fill="#FFFFFF" points="883.362,531.057 748.793,533.313 748.793,445.586 883.362,445.3 							"/>
						</g>
						<polygon fill="#FFFFFF" points="883.362,546.767 748.793,549.382 748.793,542.814 883.362,540.346 						"/>
						<polygon fill="#FFFFFF" points="833.29,558.925 748.793,560.729 748.793,554.16 833.29,552.45 						"/>
					</g>
					<g>
						<g>
							<polygon opacity="0.68" fill="#FFFFFF" points="883.362,656.858 748.793,662.002 748.793,574.277 883.362,571.102 							"/>
						</g>
						<polygon fill="#FFFFFF" points="883.362,672.566 748.793,678.074 748.793,671.505 883.362,666.145 						"/>
						<polygon fill="#FFFFFF" points="833.29,685.801 748.793,689.42 748.793,682.85 833.29,679.326 						"/>
					</g>
					<g>
						<polygon fill="#FFFFFF" points="558.065,662.343 152.519,677.395 152.519,655.414 558.065,641.715 						"/>
						<polygon fill="#FFFFFF" points="738.544,655.643 680.683,657.79 680.683,637.571 738.544,635.617 						"/>
						<polygon fill="#FFFFFF" points="671.745,658.123 612.582,660.318 612.582,639.873 671.745,637.875 						"/>
						<polygon fill="#FFFFFF" points="338.057,696.326 152.519,703.961 152.519,692.969 338.057,685.645 						"/>
					</g>
				</g>
			</g>
		</g>
		<g>
			
				<linearGradient id="SVGID_8_" gradientUnits="userSpaceOnUse" x1="244.6323" y1="432.1196" x2="138.707" y2="939.9795" gradientTransform="matrix(-1 0 0 1 1006.6934 0)">
				<stop  offset="0" style="stop-color:#FFC444"/>
				<stop  offset="0.9964" style="stop-color:#F36F56"/>
			</linearGradient>
			<path fill="url(#SVGID_8_)" d="M738.417,577.717c-9.217-9.838,16.297-46.803,29.95-63c11.929-14.148,24.191-28.695,39.247-26.854
				c13.22,1.617,26.082,15.557,26.853,28.918C836.54,552.725,751.518,591.705,738.417,577.717z"/>
			
				<linearGradient id="SVGID_9_" gradientUnits="userSpaceOnUse" x1="-662.6938" y1="975.6445" x2="-630.9707" y2="975.6445" gradientTransform="matrix(0.9996 0.0289 -0.0289 0.9996 1510.3701 7.9429)">
				<stop  offset="0" style="stop-color:#444B8C"/>
				<stop  offset="0.9964" style="stop-color:#26264F"/>
			</linearGradient>
			<path fill="url(#SVGID_9_)" d="M849.065,957.559c1.732,1.409,2.055,4.929,2.262,7.232c0.094,1.027,0.141,1.543,0.025,1.904
				c-0.839,2.65-5.977,2.928-14.033,3.751c-12.73,1.3-16.52,2.304-17.516,0.409c-0.936-1.775,1.326-4.682,1.58-5.004
				c1.368-1.723,3.047-2.35,6.293-3.418c6.007-1.979,10.064-3.061,11.293-3.389C846.644,956.996,847.927,956.631,849.065,957.559z"
				/>
			<path fill="#D8DEE8" d="M841.494,945.926l-1.274,14.508c0.361,0.702,4.674,2.803,8.1,1l3.273-14.262L841.494,945.926z"/>
			
				<linearGradient id="SVGID_10_" gradientUnits="userSpaceOnUse" x1="-167.4741" y1="1030.0547" x2="-133.7705" y2="1030.0547" gradientTransform="matrix(0.9642 0.2651 -0.2651 0.9642 1151.3223 6.5327)">
				<stop  offset="0" style="stop-color:#444B8C"/>
				<stop  offset="0.9964" style="stop-color:#26264F"/>
			</linearGradient>
			<path fill="url(#SVGID_10_)" d="M748.095,955.692c2.079,2.298,2.554,6.524,0.746,8.607c-1.777,2.048-4.451,0.511-12.027,0.737
				c-8.119,0.242-10.238,2.16-15.756,0.638c-2.228-0.616-6.164-2.11-6.09-3.7c0.053-1.119,2.056-1.697,8.75-3.941
				c9.5-3.182,9.459-3.355,11.478-3.689C740.263,953.505,745.349,952.662,748.095,955.692z"/>
			<path fill="#D8DEE8" d="M742.895,942.451l-4.072,13.545c0.308,0.727,4.446,3.15,7.999,1.615l6.047-13.146L742.895,942.451z"/>
			
				<linearGradient id="SVGID_11_" gradientUnits="userSpaceOnUse" x1="278.8477" y1="900.458" x2="188.9545" y2="697.8174" gradientTransform="matrix(-1 0 0 1 1006.6934 0)">
				<stop  offset="0" style="stop-color:#AA80F9"/>
				<stop  offset="0.9964" style="stop-color:#6165D7"/>
			</linearGradient>
			<path fill="url(#SVGID_11_)" d="M779.071,645.817c-0.583,45.519-3.688,96.697-11.143,152.302
				c-7.365,54.955-17.688,104.61-28.947,148.277c5.193,1.396,10.389,2.795,15.584,4.191c13.18-12.289,29.806-31.635,37.828-58.974
				c4.979-16.967,3.32-25.688,6.479-46.556c5.027-33.229,15.215-50.641,25.742-77.437c9.461-24.079,20.645-59.418,26.641-106.655
				C827.193,655.918,803.133,650.866,779.071,645.817z"/>
			
				<linearGradient id="SVGID_12_" gradientUnits="userSpaceOnUse" x1="-125.6909" y1="972.4961" x2="-215.5819" y2="769.8604" gradientTransform="matrix(-0.9925 -0.1225 -0.1225 0.9925 766.3765 -70.5425)">
				<stop  offset="0" style="stop-color:#AA80F9"/>
				<stop  offset="0.9964" style="stop-color:#6165D7"/>
			</linearGradient>
			<path fill="url(#SVGID_12_)" d="M825.964,641.475c3.18,57.892,5.796,116.86,7.777,176.873
				c1.486,45.033,2.579,89.496,3.305,133.375c5.307,0.654,10.613,1.311,15.92,1.965c5.128-9.545,11.938-24.143,16.604-42.848
				c5.667-22.721,4.354-36.215,6.84-59.762c2.789-26.41,6.838-32.164,14.014-65.482c14.561-67.613,21.84-101.422,5.596-122.451
				C890.747,656.316,874.219,639.191,825.964,641.475z"/>
			
				<linearGradient id="SVGID_13_" gradientUnits="userSpaceOnUse" x1="207.9565" y1="424.4702" x2="102.0322" y2="932.3254" gradientTransform="matrix(-1 0 0 1 1006.6934 0)">
				<stop  offset="0" style="stop-color:#FFC444"/>
				<stop  offset="0.9964" style="stop-color:#F36F56"/>
			</linearGradient>
			<path fill="url(#SVGID_13_)" d="M903.303,495.979c-12.427-3.496-30.641-7.582-52.945-8.843
				c-31.813-1.799-47.721-2.697-58.991,4.878c-26.035,17.498-5.879,57.885-16.537,157.992c-1.521,14.297-1.863,28.696-2.965,43.031
				c-1.824,23.734-2.242,25.023-0.59,27.429c10.357,15.081,48.994-7.667,105.627,1.325c31.686,5.031,46.056,16.624,54.736,8.263
				c10.125-9.751,1.439-35.976-6.035-58.551c-8.58-25.913-13.881-26.246-18.752-45.762c-5.091-20.397-2.012-30.9-1.219-63.067
				C906.011,547.283,905.931,524.378,903.303,495.979z"/>
			<g opacity="0.3">
				
					<linearGradient id="SVGID_14_" gradientUnits="userSpaceOnUse" x1="116.8618" y1="858.8057" x2="157.0623" y2="667.8539" gradientTransform="matrix(-1 0 0 1 1006.6934 0)">
					<stop  offset="0" style="stop-color:#FFC444"/>
					<stop  offset="0.9964" style="stop-color:#F36F56"/>
				</linearGradient>
				<path fill="url(#SVGID_14_)" d="M826.293,683.922c14.802-1.157,24.405,7.209,37.181,0.688
					c17.52-8.944,23.15-36.767,22.034-56.458c-1.697-29.921-18.782-37.809-15.837-57.146c1.593-10.462,9.059-24.347,35.871-38.534
					c0.357,11.939,0.29,22.117,0.09,30.202c-0.793,32.167-3.872,42.67,1.219,63.067c4.871,19.516,10.172,19.849,18.752,45.762
					c7.475,22.575,16.16,48.8,6.035,58.551c-8.681,8.361-23.051-3.231-54.736-8.263c-48.797-7.748-84.216,8.051-99.712,2.925
					C795.915,693.774,812.898,684.971,826.293,683.922z"/>
			</g>
			
				<linearGradient id="SVGID_15_" gradientUnits="userSpaceOnUse" x1="135.394" y1="409.3364" x2="29.4701" y2="917.1893" gradientTransform="matrix(-1 0 0 1 1006.6934 0)">
				<stop  offset="0" style="stop-color:#FFC444"/>
				<stop  offset="0.9964" style="stop-color:#F36F56"/>
			</linearGradient>
			<path fill="url(#SVGID_15_)" d="M883.113,498.032c10.571-8.687,31.826,1.146,37.508,3.773
				c31.687,14.656,60.136,54.152,53.087,95.891c-1.058,6.261-5.959,35.538-30.751,49.726c-22.371,12.801-52.578,9.508-76.78-8.621
				c-3.308-2.936-6.615-5.871-9.924-8.805c-3.252-3.518-6.508-7.035-9.761-10.553c5.114-4.254,13.806-10.392,26.011-14.33
				c16.094-5.193,27.809,4.124,35.275-2.959c5.154-4.889,5.166-13.523,3.893-18.758c-2.565-10.547-11.862-13.514-19.623-20.998
				C873.815,544.809,870.456,508.432,883.113,498.032z"/>
			<g>
				
					<linearGradient id="SVGID_16_" gradientUnits="userSpaceOnUse" x1="225.6997" y1="692.8701" x2="208.559" y2="644.3047" gradientTransform="matrix(-1 0 0 1 1006.6934 0)">
					<stop  offset="0" style="stop-color:#311944"/>
					<stop  offset="1" style="stop-color:#893976"/>
				</linearGradient>
				<polygon fill="url(#SVGID_16_)" points="731.195,634.289 872.89,632.174 835.21,650.359 730.833,643.527 				"/>
				
					<linearGradient id="SVGID_17_" gradientUnits="userSpaceOnUse" x1="150.8218" y1="622.5068" x2="157.1064" y2="665.9283" gradientTransform="matrix(-1 0 0 1 1006.6934 0)">
					<stop  offset="0" style="stop-color:#311944"/>
					<stop  offset="1" style="stop-color:#893976"/>
				</linearGradient>
				<path fill="url(#SVGID_17_)" d="M877.889,635.939L877.889,635.939c0,2.652-1.659,5.021-4.149,5.928l-45.277,17.749
					l-0.207-12.306l44.635-15.137C875.393,631.455,877.889,633.334,877.889,635.939z"/>
			</g>
			<path fill="#FFFFFF" d="M856.071,627.555c0.869-0.191-4.236-10.367-8.246-9.193c-4.007,1.176-23.613,12.537-25.395,17.215
				c-1.781,4.679-1.781,4.679-1.781,4.679s8.551,0.667,13.855-1.113C839.808,637.359,849,629.132,856.071,627.555z"/>
			<g>
				<g>
					
						<linearGradient id="SVGID_18_" gradientUnits="userSpaceOnUse" x1="275.3516" y1="626.3086" x2="241.9337" y2="578.8552" gradientTransform="matrix(-1 0 0 1 1006.6934 0)">
						<stop  offset="0" style="stop-color:#444B8C"/>
						<stop  offset="0.9964" style="stop-color:#26264F"/>
					</linearGradient>
					<path fill="url(#SVGID_18_)" d="M824.496,560.972l9.988,90.938c0.346,3.138-4.048,7.812-7.202,7.663l-146.518-8.995
						c-2.407-0.113-4.413-1.886-4.818-4.262l-18.392-87.831c-0.549-3.194,5.198-6.495,8.438-6.405l153.543,4.316
						C822.101,556.469,824.218,558.422,824.496,560.972z"/>
					
						<linearGradient id="SVGID_19_" gradientUnits="userSpaceOnUse" x1="211.2495" y1="704.8438" x2="284.3829" y2="556.2918" gradientTransform="matrix(-1 0 0 1 1006.6934 0)">
						<stop  offset="0" style="stop-color:#311944"/>
						<stop  offset="1" style="stop-color:#893976"/>
					</linearGradient>
					<path fill="url(#SVGID_19_)" d="M821.147,563.623l9.99,90.938c0.344,3.139-2.197,5.842-5.35,5.694l-148.373-7.023
						c-2.406-0.116-4.41-1.888-4.819-4.263l-15.157-88.231c-0.551-3.198,1.965-6.098,5.205-6.005l153.543,4.316
						C818.751,559.119,820.869,561.073,821.147,563.623z"/>
				</g>
				
					<linearGradient id="SVGID_20_" gradientUnits="userSpaceOnUse" x1="175.5244" y1="609.498" x2="336.1885" y2="609.498" gradientTransform="matrix(-1 0 0 1 1006.6934 0)">
					<stop  offset="0" style="stop-color:#311944"/>
					<stop  offset="1" style="stop-color:#893976"/>
				</linearGradient>
				<path opacity="0.3" fill="url(#SVGID_20_)" d="M734.025,631.92c12.955-5.491,8.382-15.961,23.683-29.009
					c20.181-17.212,40.751-9.749,47.953-23.089c2.241-4.156,3.314-10.621-0.593-21.086l11.118,0.313
					c2.564,0.07,4.683,2.024,4.961,4.574l9.99,90.938c0.344,3.139-2.197,5.842-5.35,5.694l-148.373-7.023
					c-2.406-0.116-4.41-1.888-4.819-4.263l-2.091-12.174c4.502-2.506,9.881-4.785,16.158-6.058
					C708.429,626.322,719.11,638.242,734.025,631.92z"/>
			</g>
			<path fill="#D8DEE8" d="M668.069,640.511c-0.242-0.733,0.27-1.487,1.041-1.526c3.134-0.16,10.407-0.225,14.422,2.234
				c5.217,3.195,11.961,9.025,6.281,11.967l-5.303,2.746c-0.244,0.127-0.51,0.164-0.777,0.107
				c-1.883-0.414-9.814-2.174-10.682-2.611C672.26,653.03,669.237,644.055,668.069,640.511z"/>
			<g>
				<path fill="#FFFFFF" d="M847.981,452.378c-0.079,9.432,0.975,16.911,1.968,22.034c1.141,5.869,1.962,7.386,3.011,8.616
					c1.58,1.852,3.971,3.406,17.486,6.757c7.355,1.822,8.301,1.773,8.463,2.502c0.792,3.561-19.262,15.695-39.98,12.771
					c-12.682-1.79-24.218-9.023-23.51-12.824c0.713-3.822,13.38-1.771,17.154-8.688c2.627-4.811-0.316-11.642-3.798-17.3
					C832.146,459.932,844.612,458.692,847.981,452.378z"/>
				<g>
					
						<linearGradient id="SVGID_21_" gradientUnits="userSpaceOnUse" x1="-851.0952" y1="335.4673" x2="-875.0845" y2="274.5388" gradientTransform="matrix(1 0.0037 -0.0037 1 1712.0532 168.0024)">
						<stop  offset="0" style="stop-color:#311944"/>
						<stop  offset="1" style="stop-color:#6B3976"/>
					</linearGradient>
					<path fill="url(#SVGID_21_)" d="M824.446,456.107c-2.992-3.975-3.177-10.915,0.271-15.302
						c2.968-3.775,7.638-4.313,10.434-4.637c8.101-0.936,18.321,2.447,21.878,9.902c2.106,4.418-2.451,13.6-3.164,15.25
						c-0.809,1.867-2.273,2.507-3.627,3.918c-1.88,1.957-4.82,5.068-9.62,10.272c-0.374-1.536-0.94-3.437-1.842-5.497
						c-0.346-0.792-1.739-3.89-3.848-6.459C830.708,458.405,827.282,459.874,824.446,456.107z"/>
					<path fill="#FFFFFF" d="M847.464,471.134c0,0-5.326,8.736-15.929,8.046c-9.495-0.618-10.884-21.908-4.821-26.424
						c2.023-1.508,6.074-2.134,9.368-1.21c1.946,0.545,2.606,1.354,5.802,2.183c2.949,0.766,3.781,0.438,4.672,1.188
						c1.113,0.937,1.928,3.233,0.069,9.457c1.812-1.833,3.985-2.537,5.526-1.809c0.244,0.117,0.896,0.56,1.266,1.231
						C854.743,466.227,852.522,469.333,847.464,471.134z"/>
					
						<linearGradient id="SVGID_22_" gradientUnits="userSpaceOnUse" x1="-858.4243" y1="338.3848" x2="-882.4382" y2="277.394" gradientTransform="matrix(1 0.0037 -0.0037 1 1712.0532 168.0024)">
						<stop  offset="0" style="stop-color:#311944"/>
						<stop  offset="1" style="stop-color:#6B3976"/>
					</linearGradient>
					<path fill="url(#SVGID_22_)" d="M846.984,453.643c-0.457,0.341,0.942,2.049,1.046,4.467c0.203,4.693-4.547,10.327-9.393,10.804
						c-2.865,0.282-3.65-1.444-8.387-1.945c-2.934-0.31-5.375,0.063-6.909,0.398c-1.487,5.148-0.089,10.279,3.353,12.659
						c3.702,2.563,8.434,1.008,10.412,0.358c1.323-0.435,5.563-1.82,7.779-5.708c2.31-4.053,0.043-6.495,2.691-9.236
						c1.336-1.382,3.094-1.981,4.801-4.657c0.463-0.728,0.773-1.37,0.963-1.803C850.892,456.385,847.646,453.148,846.984,453.643z"
						/>
					<path fill="#FFFFFF" d="M826.788,469.275c0,0,2.051,1.071,5.594,0.872c0.171-0.011,0.362,0.041,0.384,0.129
						c0.081,0.337-2.192,1.844-4.286,1.255c-1.487-0.418-2.644-1.827-2.443-2.185C826.12,469.195,826.456,469.216,826.788,469.275z"
						/>
				</g>
			</g>
		</g>
		<g>
			<g>
				<g>
					<linearGradient id="SVGID_23_" gradientUnits="userSpaceOnUse" x1="807.1123" y1="89.106" x2="516.213" y2="473.6853">
						<stop  offset="0" style="stop-color:#311944"/>
						<stop  offset="1" style="stop-color:#893976"/>
					</linearGradient>
					<path fill="url(#SVGID_23_)" d="M865.231,214.593l-1.47,153.525c-0.235,24.068-19.857,43.247-43.938,43.247H494.068
						c-25.909,0-46.631-20.043-46.173-45.186l0.284-15.542l0.062-3.097l2.605-141.71c0.432-23.821,19.968-42.817,44.198-43.878
						c1.11-0.049,2.247-0.051,3.384-0.026l0.432,0.018l323.495,8.301C846.313,170.85,865.454,190.698,865.231,214.593z"/>
					<linearGradient id="SVGID_24_" gradientUnits="userSpaceOnUse" x1="729.2998" y1="30.6133" x2="438.553" y2="414.991">
						<stop  offset="0" style="stop-color:#311944"/>
						<stop  offset="1" style="stop-color:#893976"/>
					</linearGradient>
					<path fill="url(#SVGID_24_)" d="M525.409,411.365h-161.76c-3.421,0-4.693-3.891-1.828-5.731l81.368-51.798l4.99-3.109
						l24.587-15.664l3.542-2.595L525.409,411.365z"/>
				</g>
			</g>
			<g>
				<g>
					<linearGradient id="SVGID_25_" gradientUnits="userSpaceOnUse" x1="802.25" y1="89.1699" x2="511.3517" y2="473.7479">
						<stop  offset="0.0036" style="stop-color:#E38DDD"/>
						<stop  offset="1" style="stop-color:#9571F6"/>
					</linearGradient>
					<path fill="url(#SVGID_25_)" d="M860.279,214.593l-1.47,153.882c-0.235,23.858-19.498,42.901-43.283,43.235
						c-0.209,0.013-0.432-0.345-0.643-0.345H489.128c-25.908,0-46.642-20.043-46.173-45.186l0.234-12.343l0.05-3.109l2.667-144.897
						c0.458-24.933,21.808-44.57,47.569-43.916l1.568,0.049l4.828,0.128l317.544,8.153
						C841.36,170.85,860.514,190.698,860.279,214.593z"/>
					<linearGradient id="SVGID_26_" gradientUnits="userSpaceOnUse" x1="723.7217" y1="31.4478" x2="433.5544" y2="415.0593">
						<stop  offset="0.0036" style="stop-color:#E38DDD"/>
						<stop  offset="1" style="stop-color:#9571F6"/>
					</linearGradient>
					<path fill="url(#SVGID_26_)" d="M520.458,411.365H358.709c-3.433,0-4.705-3.891-1.828-5.731l86.357-54.997l5.002-3.097
						l23.129-14.737l1.396,1.925L520.458,411.365z"/>
				</g>
			</g>
			<g>
				<path fill="#FFFFFF" d="M612.3,271.325v-15.671l-31.608,18.623l-23.509,13.917v9.2l55.117,28.601v-15.608l-38.66-18.29
					l13.725-7.384L612.3,271.325z"/>
				<path fill="#FFFFFF" d="M656.198,243.182l-22.426,68.031l-9.274,28.156l16.055,0.161l8.409-25.427l23.537-71.143
					L656.198,243.182z"/>
				<path fill="#FFFFFF" d="M684.563,254.9v15.956l41.06,21.006l-41.06,18.746v15.881l19.121-9.274l40.895-19.857v-9.645
					L684.563,254.9z"/>
			</g>
			<linearGradient id="SVGID_27_" gradientUnits="userSpaceOnUse" x1="658.4893" y1="264.541" x2="478.2762" y2="502.7891">
				<stop  offset="0.0036" style="stop-color:#E38DDD"/>
				<stop  offset="1" style="stop-color:#9571F6"/>
			</linearGradient>
			<path opacity="0.3" fill="url(#SVGID_27_)" d="M814.394,412.068v-0.703H358.709c-3.433,0-4.705-3.891-1.828-5.731l86.357-54.997
				l2.667-144.852c0.458-24.933,21.808-44.547,47.569-43.893l1.568,0.059c1.11-0.049,2.247-0.051,3.384-0.026l0.432,0.018
				c0.346,0.049,0.679,0.101,1.013,0.151c24.192,3.865,52.273,16.401,60.943,52.534c5.778,24.069,10.818,43.988,19.771,59.647
				c2.11,3.716,4.457,7.2,7.099,10.435c10.054,12.398,24.255,21.266,46.087,26.501c4.693,1.137,9.756,2.1,15.189,2.89
				c10.325,1.507,22.057,2.408,35.418,2.692c3.125,0.063,6.334,0.099,9.646,0.099c3.271,0,5.828,0.111,8.841,0.322
				C771.046,321.944,775.2,378.638,814.394,412.068z"/>
		</g>
		<g>
			<g>
				<g>
					<defs>
						<path id="SVGID_28_" d="M337.03,914.727c-16.837-17.792-38.751-46.367-47.116-85.425
							c-10.969-51.228,11.005-75.478,13.768-160.936c1.746-54.036,2.42-91.763-23.583-113.508
							c-20.375-17.041-54.694-22.226-76.504-8.849c-18.135,11.122-29.743,36.383-33.914,54.656
							c-3.398,14.893-2.035,25.934-11.177,33.344c-9.343,7.57-18.637,2.419-27.28,7.926c-17.526,11.164-10.19,52.033-9.004,58.641
							c13.189,73.475,77.032,126.297,105.158,149.001C250.634,868.352,286.83,893.676,337.03,914.727z"/>
					</defs>
					<linearGradient id="SVGID_29_" gradientUnits="userSpaceOnUse" x1="119.6909" y1="726.5781" x2="337.0298" y2="726.5781">
						<stop  offset="0" style="stop-color:#FFC444"/>
						<stop  offset="0.9964" style="stop-color:#F36F56"/>
					</linearGradient>
					<use xlink:href="#SVGID_28_"  overflow="visible" fill="url(#SVGID_29_)"/>
					<clipPath id="SVGID_30_">
						<use xlink:href="#SVGID_28_"  overflow="visible"/>
					</clipPath>
					<g opacity="0.5" clip-path="url(#SVGID_30_)">
						<g>
							<path fill="#FFFFFF" d="M356.566,929.426l0.703-1.563c-53.207-23.92-119.085-65.85-130.767-129.767
								c-4.296-23.504-0.856-47.398,3.903-80.466c3.8-26.4,8.875-44.77,13.351-60.978c5.856-21.194,10.479-37.935,9.422-62.688
								c-1.072-25.119-7.83-50.428-20.083-75.224l-1.536,0.761c12.146,24.578,18.844,49.655,19.907,74.535
								c1.046,24.486-3.547,41.111-9.361,62.161c-4.491,16.255-9.581,34.681-13.396,61.188c-4.603,31.979-8.239,57.24-3.892,81.019
								c5.559,30.411,23.953,58.804,54.674,84.388C300.233,900.07,326.167,915.76,356.566,929.426z"/>
						</g>
						<g>
							<path fill="#FFFFFF" d="M232.229,699.09l0.909-0.334c0.181-0.065,18.331-6.85,37.078-23.982
								c17.303-15.811,38.697-43.932,42.373-88.106l-1.709-0.143c-3.628,43.622-24.745,71.38-41.821,86.985
								c-16.13,14.739-31.754,21.695-35.61,23.279c-11.663-48.842-35.639-80.467-53.761-98.428
								c-19.784-19.611-37.093-27.652-37.266-27.729l-0.713,1.559c0.17,0.078,17.254,8.023,36.831,27.445
								c18.059,17.917,41.994,49.553,53.469,98.51L232.229,699.09z"/>
						</g>
						<g>
							<path fill="#FFFFFF" d="M224.091,770.71l0.381-0.493c0.189-0.242,19.156-24.633,42.955-45.361
								c23.657-20.607,76.476-25.117,77.006-25.159l-0.139-1.71c-0.536,0.045-53.916,4.604-77.993,25.574
								c-22.047,19.205-39.965,41.527-42.795,45.113c-53.901-20.178-104.889-152.186-105.399-153.522l-1.602,0.612
								c0.128,0.336,13.09,34.076,32.625,69.799c26.292,48.077,51.315,76.654,74.377,84.937L224.091,770.71z"/>
						</g>
						<g>
							<path fill="#FFFFFF" d="M271.562,875.826l-0.763-1.528c-12.581-25.203-9.02-50.676,10.583-75.712
								c14.686-18.754,33.367-30.193,33.554-30.305l-0.888-1.469c-0.19,0.115-19.106,11.689-33.988,30.681
								c-19.387,24.735-23.364,50.983-11.552,76.013c-6.271-1.289-29.463-6.512-58.165-18.478
								c-30.942-12.897-74.802-36.495-108.03-75.671l-64.56-76.113l-1.308,1.108l64.56,76.115
								c33.46,39.446,77.591,63.189,108.72,76.163c33.719,14.052,59.894,18.846,60.154,18.895L271.562,875.826z"/>
						</g>
					</g>
				</g>
			</g>
			<g>
				<g>
					<defs>
						<path id="SVGID_31_" d="M283.288,929.008c-38.335,5.137-87.902,6.209-137.442-9.026
							c-12.643-3.888-90.745-27.907-86.298-62.653c1.568-12.24,12.054-15.475,14.434-31.801
							c2.821-19.349-10.096-27.191-21.187-49.445c-6.619-13.279-25.987-52.145-4.484-77.758
							c12.849-15.306,39.712-25.189,61.4-22.947c31.812,3.285,46.255,32.008,69.853,81.028
							c20.918,43.458,18.442,55.091,34.052,86.121C225.199,865.555,245.463,896.714,283.288,929.008z"/>
					</defs>
					<linearGradient id="SVGID_32_" gradientUnits="userSpaceOnUse" x1="204.8545" y1="705.4512" x2="140.9937" y2="876.8673">
						<stop  offset="0" style="stop-color:#AA80F9"/>
						<stop  offset="0.9964" style="stop-color:#6165D7"/>
					</linearGradient>
					<use xlink:href="#SVGID_31_"  overflow="visible" fill="url(#SVGID_32_)"/>
					<clipPath id="SVGID_33_">
						<use xlink:href="#SVGID_31_"  overflow="visible"/>
					</clipPath>
					<g opacity="0.5" clip-path="url(#SVGID_33_)">
						<g>
							<path fill="#FFFFFF" d="M352.518,939.552c31.958,0,64.364-6.615,96.654-19.764l-0.646-1.587
								c-40.575,16.518-81.323,22.66-121.098,18.253c-142.34-15.769-212.405-166.225-230.489-211.963
								c-10.261-25.95-12.712-55.816-7.288-88.771l-1.691-0.279c-5.477,33.265-2.992,63.438,7.385,89.681
								c14.882,37.642,41.998,92.11,86.662,137.828c42.972,43.989,91.835,69.294,145.232,75.208
								C335.626,939.087,344.057,939.552,352.518,939.552z"/>
						</g>
						<g>
							<path fill="#FFFFFF" d="M132.745,798.526l0.405-0.656c0.091-0.145,9.158-14.938,15.257-36.536
								c5.634-19.954,9.826-49.988-2.202-79.734l-1.59,0.645c11.838,29.277,7.706,58.889,2.154,78.574
								c-5.306,18.818-12.883,32.403-14.683,35.488C44.082,753.74,37.198,693.174,37.191,675.588c0-0.546-0.001-0.74-0.021-0.885
								l-1.699,0.219c0.008,0.101,0.006,0.325,0.006,0.666c0.007,17.886,6.991,79.59,96.573,122.604L132.745,798.526z"/>
						</g>
						<g>
							<path fill="#FFFFFF" d="M129.056,870.191c15.227,0,32.892-2.146,53.052-7.777l0.442-0.122l0.142-0.435
								c0.163-0.499,16.107-50.373,3.16-113.779l-13.05-63.916l-1.68,0.342l13.05,63.917c12.215,59.827-1.444,107.444-2.974,112.467
								c-48.607,13.478-82.468,6.517-102.337-1.712c-21.584-8.939-31.766-21.264-31.867-21.387l-1.332,1.08
								c0.418,0.518,10.493,12.731,32.436,21.848C90.047,865.679,106.988,870.191,129.056,870.191z"/>
						</g>
					</g>
				</g>
			</g>
		</g>
		<g>
			<g>
				<g>
					<g>
						
							<linearGradient id="SVGID_34_" gradientUnits="userSpaceOnUse" x1="392.2031" y1="762.4473" x2="592.8486" y2="762.4473" gradientTransform="matrix(0.9993 0.0372 -0.0372 0.9993 -199.2061 18.2686)">
							<stop  offset="0" style="stop-color:#444B8C"/>
							<stop  offset="0.9964" style="stop-color:#26264F"/>
						</linearGradient>
						<path fill="url(#SVGID_34_)" d="M333.119,641.6l26.561,298.038c0.403,4.515-2.731,8.525-6.972,8.917l-143.702,14.799
							c-8.597,0.459-13.146-4.203-13.533-8.891l-25.492-309.437c-0.376-4.569,3.894-8.876,12.388-9.188l142.382-2.092
							C328.965,633.664,332.727,637.198,333.119,641.6z"/>
						
							<linearGradient id="SVGID_35_" gradientUnits="userSpaceOnUse" x1="479.1694" y1="810.5381" x2="506.8882" y2="733.5946" gradientTransform="matrix(0.9993 0.0372 -0.0372 0.9993 -199.2061 18.2686)">
							<stop  offset="0" style="stop-color:#444B8C"/>
							<stop  offset="0.9964" style="stop-color:#26264F"/>
						</linearGradient>
						<path fill="url(#SVGID_35_)" d="M339.647,640.861l26.8,299.82c0.406,4.54-2.744,8.576-7.008,8.971l-149.108,13.762
							c-4.572,0.422-8.638-3.092-9.027-7.807l-25.718-311.309c-0.38-4.596,3.029-8.426,7.567-8.51l148.078-2.832
							C335.467,632.879,339.251,636.435,339.647,640.861z"/>
						<path fill="#FFFFFF" d="M336.333,657.404l24.786,277.9c0.378,4.237-2.567,8-6.552,8.363l-140.188,12.729
							c-4.254,0.386-8.038-2.892-8.402-7.283l-23.846-287.893c-0.355-4.289,2.818-7.875,7.043-7.972l139.291-3.204
							C332.427,649.953,335.964,653.266,336.333,657.404z"/>
						<g>
							<linearGradient id="SVGID_36_" gradientUnits="userSpaceOnUse" x1="220.376" y1="737.4863" x2="324.7287" y2="586.0845">
								<stop  offset="0" style="stop-color:#FF9085"/>
								<stop  offset="1" style="stop-color:#FB6FBB"/>
							</linearGradient>
							<path fill="url(#SVGID_36_)" d="M336.333,657.404c-0.37-4.137-3.907-7.451-7.869-7.359l-139.291,3.204
								c-4.225,0.097-7.398,3.683-7.043,7.972l3.413,41.204l154.472-3.732L336.333,657.404z"/>
						</g>
					</g>
					
						<linearGradient id="SVGID_37_" gradientUnits="userSpaceOnUse" x1="485.5928" y1="596.2344" x2="315.2545" y2="1057.5671" gradientTransform="matrix(0.9993 0.0372 -0.0372 0.9993 -199.2061 18.2686)">
						<stop  offset="0" style="stop-color:#FFC444"/>
						<stop  offset="0.9964" style="stop-color:#F36F56"/>
					</linearGradient>
					<path fill="url(#SVGID_37_)" d="M261.96,643.396c0.135,1.563-0.987,2.855-2.506,2.891c-1.52,0.033-2.863-1.21-2.997-2.775
						c-0.135-1.564,0.989-2.857,2.509-2.889C260.486,640.593,261.826,641.834,261.96,643.396z"/>
				</g>
			</g>
			<g>
				<g>
					
						<linearGradient id="SVGID_38_" gradientUnits="userSpaceOnUse" x1="-381.6768" y1="767.7451" x2="-302.0537" y2="940.3333" gradientTransform="matrix(1 0 0.0972 0.995 532.2349 -27.3389)">
						<stop  offset="0.0036" style="stop-color:#E38DDD"/>
						<stop  offset="1" style="stop-color:#9571F6"/>
					</linearGradient>
					<polygon fill="url(#SVGID_38_)" points="281.228,812.805 211.529,816.248 201.907,717.742 271.993,715.954 					"/>
					
						<linearGradient id="SVGID_39_" gradientUnits="userSpaceOnUse" x1="-341.105" y1="708.9502" x2="-249.451" y2="907.6161" gradientTransform="matrix(1 0 0.0972 0.995 532.2349 -27.3389)">
						<stop  offset="0.0036" style="stop-color:#E38DDD"/>
						<stop  offset="1" style="stop-color:#9571F6"/>
					</linearGradient>
					<polygon fill="url(#SVGID_39_)" points="332.918,810.253 291.974,812.274 282.798,715.678 323.966,714.627 					"/>
					
						<linearGradient id="SVGID_40_" gradientUnits="userSpaceOnUse" x1="-377.0811" y1="815.2412" x2="-313.6441" y2="952.745" gradientTransform="matrix(1 0 0.0972 0.995 532.2349 -27.3389)">
						<stop  offset="0.0036" style="stop-color:#E38DDD"/>
						<stop  offset="1" style="stop-color:#9571F6"/>
					</linearGradient>
					<polygon fill="url(#SVGID_40_)" points="340.133,887.322 219.284,895.623 212.781,829.063 334.083,822.695 					"/>
					
						<linearGradient id="SVGID_41_" gradientUnits="userSpaceOnUse" x1="-365.5112" y1="899.6162" x2="-323.21" y2="991.3069" gradientTransform="matrix(1 0 0.0972 0.995 532.2349 -27.3389)">
						<stop  offset="0.0036" style="stop-color:#E38DDD"/>
						<stop  offset="1" style="stop-color:#9571F6"/>
					</linearGradient>
					<polygon fill="url(#SVGID_41_)" points="343.899,927.553 223.331,937.054 220.417,907.236 341.188,898.6 					"/>
				</g>
			</g>
			<g opacity="0.48">
				<path fill="#FFFFFF" d="M303.82,846.682c-14.455-50.502-56.601-45.453-69.205-91.089c-10.352-37.481,13.517-57.239-0.961-88.618
					c-6.81-14.758-18.739-24.737-31.11-31.557l-19.391,0.371c-4.538,0.084-7.947,3.914-7.567,8.51l25.718,311.309
					c0.389,4.715,4.455,8.229,9.027,7.807l122.255-11.283c-7.817-9.916-15.235-22.053-20.382-36.629
					C301.307,884.643,311.813,874.611,303.82,846.682z"/>
			</g>
		</g>
	</g>
</g>
<g id="Illustration">
</g>
</svg>
