<?xml version="1.0" encoding="utf-8"?>
<!-- Generator: Adobe Illustrator 15.0.0, SVG Export Plug-In . SVG Version: 6.00 Build 0)  -->
<!DOCTYPE svg PUBLIC "-//W3C//DTD SVG 1.1//EN" "http://www.w3.org/Graphics/SVG/1.1/DTD/svg11.dtd">
<svg version="1.1" id="Layer_1" xmlns="http://www.w3.org/2000/svg" xmlns:xlink="http://www.w3.org/1999/xlink" x="0px" y="0px"
	 width="300px" height="300px" viewBox="0 0 300 300" enable-background="new 0 0 300 300" xml:space="preserve">
<g>
	<path fill="#F4F7FA" d="M156.289,5.139C81.169,2.951,16.099,56.705,6.268,127.237C-4.481,204.354,54.679,273.74,127.473,284.854
		c90.543,13.823,178.365-66.145,170.479-152.898C292.011,66.594,232.65,7.363,156.289,5.139z"/>
	<g>
		<g>
			<g>
				<g>
					<path fill="#97A6B7" d="M182.764,84.027l-8.318,0.014c-0.574-5.496-1.895-10.771-3.86-15.727l7.034-4.079
						c1.922-1.115,2.58-3.629,1.471-5.622l-2.955-5.316c-1.115-2.005-3.591-2.741-5.533-1.639l-6.947,3.942
						c-3.232-4.53-7.092-8.615-11.462-12.128l3.995-6.864c1.146-1.969,0.467-4.561-1.521-5.795l-5.318-3.299
						c-2.01-1.247-4.59-0.658-5.758,1.323l-4.004,6.793c-5.146-2.397-10.706-4.126-16.57-5.053v-8.056
						c0-2.376-1.955-4.393-4.374-4.503l-6.475-0.295c-2.45-0.112-4.443,1.745-4.443,4.148v8.144
						c-6.045,0.504-11.873,1.863-17.352,3.965l-4.322-7.363c-1.27-2.164-4.091-3.002-6.305-1.867l-5.921,3.037
						c-2.239,1.148-3.008,3.851-1.713,6.029l4.478,7.533c-4.901,3.465-9.282,7.613-12.994,12.317l-8.1-4.583
						c-2.296-1.299-5.243-0.626-6.578,1.511l-3.561,5.703c-1.343,2.152-0.546,4.944,1.777,6.229l8.381,4.638
						c-2.324,5.352-3.894,11.089-4.577,17.088l-10.053,0.017c-2.706,0.005-4.907,2.056-4.907,4.581v6.715
						c0,2.525,2.201,4.545,4.907,4.511l10.32-0.128c0.871,5.858,2.592,11.435,5.038,16.613l-9.109,5.17
						c-2.323,1.318-3.12,4.122-1.777,6.254l3.561,5.653c1.334,2.118,4.281,2.75,6.578,1.418l9.213-5.343
						c3.681,4.354,7.963,8.18,12.714,11.364l-5.312,9.011c-1.295,2.196-0.526,4.888,1.713,6.005l5.921,2.953
						c2.214,1.104,5.035,0.225,6.305-1.957l5.268-9.049c5.202,1.834,10.707,2.999,16.405,3.401v10.088
						c0,2.403,1.993,4.231,4.443,4.086l6.475-0.389c2.419-0.145,4.374-2.188,4.374-4.564v-9.979c5.531-0.945,10.791-2.6,15.688-4.85
						l4.887,8.222c1.168,1.964,3.748,2.517,5.758,1.241l5.318-3.374c1.988-1.263,2.668-3.864,1.521-5.817l-4.744-8.083
						c4.247-3.361,8.027-7.25,11.244-11.55l7.914,4.379c1.942,1.075,4.418,0.303,5.533-1.717l2.955-5.357
						c1.109-2.008,0.451-4.514-1.471-5.601l-7.652-4.33c2.072-4.862,3.522-10.038,4.254-15.429l8.543-0.106
						c2.203-0.027,3.982-1.888,3.982-4.155v-6.031C186.746,85.858,184.967,84.023,182.764,84.027z M115.412,133.672
						c-24.617,0.913-45.218-18.192-45.218-42.703s20.601-43.88,45.218-43.281c23.781,0.578,42.473,19.697,42.473,42.72
						C157.885,113.432,139.192,132.789,115.412,133.672z"/>
					<polygon fill="#97A6B7" points="87.866,24.436 81.941,24.231 79.897,29.544 					"/>
					<polygon fill="#97A6B7" points="146.621,26.888 153.453,26.956 153.453,31.996 					"/>
					<polygon fill="#97A6B7" points="172.66,51.199 179.471,51.475 177.768,55.289 					"/>
					<polygon fill="#97A6B7" points="183.354,84.098 190.232,84.643 187.984,87.98 					"/>
					<polygon fill="#97A6B7" points="171.911,131.296 178.586,132.25 179.402,126.801 					"/>
					<polygon fill="#97A6B7" points="146.371,155.883 152.364,156.973 152.841,152.546 					"/>
					<polygon fill="#97A6B7" points="116.403,166.508 111.023,165.555 115.654,158.676 					"/>
					<polygon fill="#97A6B7" points="87.253,160.719 80.987,159.425 85.823,153.568 					"/>
					<polygon fill="#97A6B7" points="52.042,48.478 58.58,48.682 55.992,53.45 					"/>
					<polygon fill="#97A6B7" points="39.033,99.763 45.026,100.648 44.55,95.744 					"/>
					<polygon fill="#97A6B7" points="51.905,135.655 57.763,136.609 58.239,132.727 					"/>
				</g>
				<path fill="#D8DEE8" d="M189.486,84.567l-8.389,0.014c-0.578-5.54-1.91-10.858-3.893-15.854l7.093-4.112
					c1.938-1.124,2.601-3.659,1.483-5.668l-2.98-5.359c-1.123-2.021-3.62-2.764-5.578-1.652l-7.005,3.975
					c-3.26-4.568-7.15-8.686-11.558-12.228l4.029-6.919c1.156-1.985,0.471-4.598-1.535-5.842l-5.361-3.326
					c-2.027-1.257-4.629-0.663-5.806,1.334l-4.038,6.848c-5.188-2.416-10.794-4.159-16.708-5.094v-8.121
					c0-2.396-1.971-4.428-4.41-4.54l-6.528-0.298c-2.47-0.113-4.479,1.759-4.479,4.182v8.21c-6.095,0.508-11.971,1.878-17.496,3.998
					l-4.357-7.423c-1.281-2.182-4.125-3.027-6.357-1.883l-5.97,3.062c-2.258,1.158-3.033,3.882-1.727,6.078l4.515,7.594
					c-4.942,3.493-9.36,7.675-13.102,12.417l-8.167-4.62c-2.315-1.31-5.287-0.631-6.632,1.524l-3.59,5.75
					c-1.354,2.169-0.55,4.984,1.792,6.28l8.451,4.676c-2.343,5.396-3.926,11.18-4.615,17.227l-10.137,0.018
					c-2.728,0.004-4.947,2.072-4.947,4.618v6.77c0,2.546,2.219,4.582,4.947,4.548l10.406-0.129
					c0.878,5.906,2.614,11.528,5.08,16.748l-9.185,5.212c-2.342,1.329-3.146,4.155-1.792,6.305l3.59,5.699
					c1.346,2.136,4.317,2.772,6.632,1.43l9.29-5.387c3.712,4.389,8.029,8.246,12.819,11.457l-5.356,9.084
					c-1.306,2.214-0.531,4.928,1.727,6.053l5.97,2.977c2.232,1.113,5.076,0.228,6.357-1.972l5.312-9.123
					c5.245,1.85,10.796,3.023,16.542,3.429v10.17c0,2.422,2.009,4.266,4.479,4.118l6.528-0.39c2.439-0.146,4.41-2.207,4.41-4.603
					v-10.06c5.577-0.953,10.88-2.621,15.817-4.89l4.929,8.289c1.177,1.98,3.778,2.539,5.806,1.252l5.361-3.402
					c2.006-1.271,2.691-3.895,1.535-5.863l-4.784-8.149c4.282-3.388,8.095-7.309,11.337-11.644l7.98,4.415
					c1.958,1.084,4.455,0.306,5.578-1.731l2.98-5.401c1.117-2.024,0.455-4.55-1.483-5.646l-7.716-4.365
					c2.09-4.902,3.552-10.12,4.289-15.555l8.615-0.107c2.221-0.028,4.015-1.903,4.015-4.189v-6.08
					C193.501,86.413,191.707,84.563,189.486,84.567z M121.575,134.616c-24.821,0.921-45.593-18.34-45.593-43.051
					c0-24.71,20.772-44.237,45.593-43.633C145.553,48.515,164.4,67.79,164.4,91S145.553,133.727,121.575,134.616z"/>
			</g>
		</g>
		<g>
			<g>
				<g>
					<path fill="#97A6B7" d="M267.608,84.621l-4.476-0.832c0.246-3.013,0.068-5.984-0.488-8.848l4.195-1.483
						c1.146-0.405,1.754-1.691,1.359-2.875l-1.054-3.157c-0.397-1.191-1.654-1.836-2.81-1.44l-4.135,1.419
						c-1.281-2.763-2.943-5.349-4.939-7.68l2.842-3.288c0.814-0.943,0.711-2.406-0.234-3.27l-2.526-2.312
						c-0.955-0.874-2.401-0.817-3.229,0.13l-2.84,3.249c-2.525-1.809-5.341-3.3-8.4-4.391l0.813-4.332
						c0.24-1.278-0.607-2.56-1.897-2.863l-3.452-0.813c-1.307-0.308-2.565,0.49-2.809,1.782l-0.822,4.38
						c-3.302-0.34-6.572-0.197-9.731,0.38l-1.581-4.396c-0.465-1.292-1.896-2.028-3.202-1.641l-3.491,1.035
						c-1.319,0.392-2.006,1.767-1.529,3.069l1.647,4.503c-2.985,1.369-5.761,3.157-8.231,5.312l-3.893-3.282
						c-1.104-0.93-2.758-0.866-3.691,0.149l-2.49,2.708c-0.939,1.021-0.793,2.604,0.326,3.53l4.04,3.34
						c-1.79,2.644-3.214,5.57-4.187,8.728l-5.408-1.006c-1.456-0.271-2.847,0.61-3.102,1.968l-0.678,3.611
						c-0.256,1.358,0.725,2.667,2.183,2.921l5.563,0.973c-0.123,3.238,0.239,6.411,1.031,9.443l-5.42,1.861
						c-1.383,0.474-2.095,1.901-1.588,3.184l1.345,3.399c0.504,1.274,2.024,1.911,3.395,1.427l5.494-1.943
						c1.54,2.713,3.456,5.203,5.69,7.396l-3.767,4.31c-0.919,1.05-0.776,2.576,0.315,3.402l2.885,2.186
						c1.08,0.817,2.686,0.629,3.589-0.416l3.747-4.335c2.611,1.512,5.455,2.694,8.479,3.485l-1.018,5.425
						c-0.243,1.292,0.645,2.477,1.977,2.646l3.521,0.445c1.314,0.167,2.572-0.735,2.813-2.013l1.008-5.366
						c3.069,0.05,6.065-0.309,8.926-1.025l1.799,4.915c0.43,1.174,1.761,1.732,2.971,1.249l3.201-1.278
						c1.196-0.478,1.824-1.808,1.405-2.974l-1.735-4.826c2.623-1.379,5.049-3.088,7.213-5.076l3.814,3.154
						c0.936,0.774,2.346,0.609,3.148-0.365l2.131-2.583c0.799-0.968,0.698-2.382-0.226-3.161l-3.679-3.101
						c1.605-2.405,2.908-5.042,3.846-7.868l4.605,0.805c1.188,0.208,2.332-0.613,2.561-1.833l0.609-3.243
						C269.564,86.008,268.793,84.842,267.608,84.621z M226.374,104.52c-13.331-1.994-22.481-14.349-20.007-27.531
						c2.475-13.182,15.51-21.519,28.688-18.711c12.73,2.712,20.854,14.881,18.528,27.263
						C251.26,97.923,239.252,106.446,226.374,104.52z"/>
					<polygon fill="#97A6B7" points="222.59,42.992 219.424,42.284 217.788,44.935 					"/>
					<polygon fill="#97A6B7" points="253.939,50.243 257.607,50.97 257.099,53.68 					"/>
					<polygon fill="#97A6B7" points="265.488,65.947 269.124,66.782 267.823,68.662 					"/>
					<polygon fill="#97A6B7" points="267.918,84.719 271.563,85.707 270.017,87.274 					"/>
					<polygon fill="#97A6B7" points="256.999,108.947 260.492,110.134 261.482,107.286 					"/>
					<polygon fill="#97A6B7" points="240.781,119.591 243.895,120.782 244.598,118.449 					"/>
					<polygon fill="#97A6B7" points="223.592,122.279 220.795,121.223 223.98,117.991 					"/>
					<polygon fill="#97A6B7" points="208.5,116.223 205.261,114.894 208.453,112.232 					"/>
					<polygon fill="#97A6B7" points="200.896,52.305 204.391,53.075 202.518,55.377 					"/>
					<polygon fill="#97A6B7" points="188.722,78.572 191.855,79.654 192.094,76.968 					"/>
					<polygon fill="#97A6B7" points="192.021,99.175 195.074,100.279 195.723,98.239 					"/>
				</g>
				<path fill="#D8DEE8" d="M271.169,85.59l-4.513-0.839c0.248-3.038,0.068-6.033-0.492-8.92l4.229-1.496
					c1.156-0.409,1.77-1.705,1.371-2.898l-1.063-3.183c-0.4-1.201-1.668-1.852-2.833-1.452l-4.169,1.43
					c-1.291-2.785-2.968-5.393-4.98-7.743l2.865-3.314c0.822-0.951,0.717-2.425-0.236-3.297l-2.547-2.33
					c-0.963-0.881-2.422-0.824-3.257,0.131l-2.862,3.275c-2.547-1.823-5.386-3.327-8.472-4.427l0.82-4.368
					c0.241-1.289-0.613-2.58-1.913-2.886l-3.481-0.819c-1.317-0.31-2.587,0.494-2.831,1.796l-0.829,4.416
					c-3.329-0.342-6.628-0.199-9.813,0.384l-1.595-4.432c-0.468-1.302-1.912-2.044-3.229-1.654l-3.52,1.044
					c-1.33,0.395-2.022,1.781-1.542,3.094l1.661,4.54c-3.01,1.379-5.809,3.183-8.299,5.355l-3.926-3.309
					c-1.113-0.938-2.779-0.873-3.721,0.15l-2.512,2.729c-0.947,1.03-0.799,2.625,0.33,3.558l4.072,3.368
					c-1.805,2.666-3.24,5.616-4.221,8.799l-5.453-1.014c-1.469-0.273-2.871,0.615-3.127,1.984l-0.684,3.641
					c-0.258,1.369,0.73,2.688,2.201,2.945l5.609,0.981c-0.124,3.265,0.241,6.464,1.041,9.52l-5.467,1.875
					c-1.393,0.479-2.111,1.917-1.6,3.21l1.355,3.427c0.508,1.285,2.041,1.927,3.422,1.439l5.541-1.959
					c1.553,2.735,3.484,5.246,5.736,7.456l-3.797,4.345c-0.926,1.059-0.783,2.596,0.317,3.43l2.91,2.204
					c1.088,0.824,2.707,0.635,3.618-0.419l3.777-4.37c2.634,1.524,5.5,2.716,8.55,3.514l-1.026,5.47
					c-0.245,1.303,0.649,2.497,1.992,2.667l3.551,0.449c1.326,0.167,2.595-0.741,2.836-2.03l1.016-5.41
					c3.096,0.051,6.117-0.311,9-1.033l1.814,4.955c0.434,1.184,1.775,1.747,2.995,1.26l3.228-1.289
					c1.207-0.482,1.84-1.823,1.418-2.999l-1.75-4.866c2.645-1.39,5.09-3.113,7.272-5.117l3.845,3.18
					c0.944,0.78,2.365,0.614,3.176-0.368l2.148-2.604c0.805-0.976,0.703-2.401-0.229-3.187l-3.709-3.126
					c1.619-2.425,2.932-5.083,3.878-7.932l4.644,0.812c1.197,0.209,2.352-0.618,2.582-1.848l0.613-3.27
					C273.142,86.989,272.363,85.813,271.169,85.59z M229.594,105.65c-13.441-2.011-22.668-14.467-20.174-27.756
					c2.496-13.29,15.638-21.693,28.926-18.863c12.836,2.735,21.026,15.003,18.683,27.486C254.686,99,242.578,107.593,229.594,105.65
					z"/>
			</g>
		</g>
	</g>
	<g>
		<linearGradient id="SVGID_1_" gradientUnits="userSpaceOnUse" x1="49.7417" y1="157.8115" x2="92.4229" y2="153.3523">
			<stop  offset="0.0036" style="stop-color:#26264F"/>
			<stop  offset="1" style="stop-color:#444B8C"/>
		</linearGradient>
		<path fill="url(#SVGID_1_)" d="M32.155,246.547c-5.099,0.299-9.267-3.266-9.267-7.946V69.912c0-4.68,4.168-8.337,9.267-8.152
			l240.679,8.734c3.899,0.142,7.059,3.565,7.059,7.631v146.572c0,4.067-3.159,7.561-7.059,7.788L32.155,246.547z"/>
		<linearGradient id="SVGID_2_" gradientUnits="userSpaceOnUse" x1="140.7261" y1="288.2051" x2="149.769" y2="275.2518">
			<stop  offset="0" style="stop-color:#444B8C"/>
			<stop  offset="0.9964" style="stop-color:#26264F"/>
		</linearGradient>
		<path fill="url(#SVGID_2_)" d="M189.068,265.219c-3.848-1.34-6.723-4.765-7.533-8.975l-5.6-29.074l-47.895,1.785l-5.895,30.288
			c-0.825,4.241,2.479,8.497,6.285,10.06l20.038,8.227c3.728,1.529,7.734,2.139,11.716,1.781l42.349-3.801
			c1.238-0.111,2.23-1.132,2.375-2.441c0.145-1.311,1.012-2.781-0.17-3.191L189.068,265.219z"/>
		<linearGradient id="SVGID_3_" gradientUnits="userSpaceOnUse" x1="168.0986" y1="284.8838" x2="154.2588" y2="209.7536">
			<stop  offset="0" style="stop-color:#444B8C"/>
			<stop  offset="0.9964" style="stop-color:#26264F"/>
		</linearGradient>
		<path fill="url(#SVGID_3_)" d="M189.541,263.449c-3.842-1.321-6.715-4.703-7.524-8.861l-5.594-28.708l-46.728,1.765l-5.889,29.907
			c-0.825,4.188,1.357,8.389,5.16,9.932l20.019,8.122c3.723,1.512,7.725,2.113,11.703,1.76l42.306-3.753
			c1.237-0.11,2.229-1.118,2.372-2.411c0.145-1.293-0.6-2.514-1.779-2.92L189.541,263.449z"/>
		<g>
			<g>
				<linearGradient id="SVGID_4_" gradientUnits="userSpaceOnUse" x1="202.2412" y1="77.4814" x2="271.5003" y2="-21.3673">
					<stop  offset="0" style="stop-color:#444B8C"/>
					<stop  offset="0.9964" style="stop-color:#26264F"/>
				</linearGradient>
				<path fill="url(#SVGID_4_)" d="M34.061,246.547c-5.099,0.299-9.267-3.266-9.267-7.946V69.912c0-4.68,4.168-8.337,9.267-8.152
					l240.679,8.734c3.899,0.142,7.06,3.565,7.06,7.631v146.572c0,4.067-3.16,7.561-7.06,7.788L34.061,246.547z"/>
				<linearGradient id="SVGID_5_" gradientUnits="userSpaceOnUse" x1="172.1592" y1="89.2168" x2="85.5252" y2="364.3781">
					<stop  offset="0" style="stop-color:#444B8C"/>
					<stop  offset="0.9964" style="stop-color:#26264F"/>
				</linearGradient>
				<path fill="url(#SVGID_5_)" d="M274.739,73.941L34.061,65.692c-2.727-0.093-4.942,1.857-4.942,4.357v131.243v37.073
					c0,2.501,2.216,4.401,4.942,4.248l240.679-13.576c2.09-0.118,3.78-1.981,3.78-4.163v-33.496V78.02
					C278.52,75.839,276.829,74.013,274.739,73.941z"/>
				<path fill="#FFFFFF" d="M34.061,228.273c-1.062,0.051-1.926-0.697-1.926-1.67V70.146c0-0.973,0.864-1.736,1.926-1.701
					l240.679,7.909c0.815,0.027,1.478,0.741,1.478,1.592V214.85c0,0.851-0.662,1.576-1.478,1.615L34.061,228.273z"/>
			</g>
			<g>
				<linearGradient id="SVGID_6_" gradientUnits="userSpaceOnUse" x1="176.8545" y1="106.0605" x2="95.6366" y2="273.5303">
					<stop  offset="0.0036" style="stop-color:#E38DDD"/>
					<stop  offset="1" style="stop-color:#9571F6"/>
				</linearGradient>
				<polygon fill="url(#SVGID_6_)" points="266.543,208.029 44.618,217.775 44.618,91.829 266.543,96.486 				"/>
				<linearGradient id="SVGID_7_" gradientUnits="userSpaceOnUse" x1="155.4082" y1="86.1509" x2="150.6157" y2="125.8219">
					<stop  offset="0" style="stop-color:#FF9085"/>
					<stop  offset="1" style="stop-color:#FB6FBB"/>
				</linearGradient>
				<polygon fill="url(#SVGID_7_)" points="266.543,92.676 44.618,87.526 44.618,76.77 266.543,83.15 				"/>
				<g>
					<path fill="#FFFFFF" d="M249.688,87.475c0,0.68-0.535,1.218-1.197,1.201c-0.661-0.017-1.197-0.583-1.197-1.263
						c0-0.681,0.536-1.219,1.197-1.202C249.152,86.229,249.688,86.795,249.688,87.475z"/>
					<path fill="#FFFFFF" d="M254.6,87.603c0,0.678-0.533,1.215-1.19,1.198c-0.658-0.017-1.192-0.581-1.192-1.26
						c0-0.68,0.534-1.216,1.192-1.198C254.066,86.36,254.6,86.924,254.6,87.603z"/>
					<path fill="#FFFFFF" d="M259.482,87.729c0,0.676-0.529,1.211-1.183,1.195c-0.654-0.017-1.185-0.579-1.185-1.256
						s0.53-1.212,1.185-1.195C258.953,86.491,259.482,87.053,259.482,87.729z"/>
				</g>
				<g opacity="0.68">
					<polygon fill="#FFFFFF" points="221.627,187.928 49.458,193.334 49.458,95.1 221.627,98.432 					"/>
				</g>
				<g>
					<g>
						<polygon opacity="0.68" fill="#FFFFFF" points="264.172,124.45 224.638,124.263 224.638,98.49 264.172,99.255 						"/>
					</g>
					<polygon fill="#FFFFFF" points="264.172,129.065 224.638,128.984 224.638,127.055 264.172,127.178 					"/>
					<polygon fill="#FFFFFF" points="249.463,132.321 224.638,132.318 224.638,130.388 249.463,130.418 					"/>
				</g>
				<g>
					<g>
						<polygon opacity="0.68" fill="#FFFFFF" points="264.172,161.408 224.638,162.071 224.638,136.298 264.172,136.214 						"/>
					</g>
					<polygon fill="#FFFFFF" points="264.172,166.023 224.638,166.793 224.638,164.863 264.172,164.137 					"/>
					<polygon fill="#FFFFFF" points="249.463,169.597 224.638,170.127 224.638,168.196 249.463,167.693 					"/>
				</g>
				<g>
					<g>
						<polygon opacity="0.68" fill="#FFFFFF" points="264.172,198.368 224.638,199.88 224.638,174.107 264.172,173.174 						"/>
					</g>
					<polygon fill="#FFFFFF" points="264.172,202.982 224.638,204.602 224.638,202.672 264.172,201.097 					"/>
					<polygon fill="#FFFFFF" points="249.463,206.871 224.638,207.935 224.638,206.005 249.463,204.969 					"/>
				</g>
				<g>
					<polygon fill="#FFFFFF" points="168.604,199.979 49.458,204.402 49.458,197.943 168.604,193.919 					"/>
					<polygon fill="#FFFFFF" points="221.627,198.012 204.628,198.643 204.628,192.702 221.627,192.128 					"/>
					<polygon fill="#FFFFFF" points="202.002,198.74 184.62,199.385 184.62,193.378 202.002,192.791 					"/>
					<polygon fill="#FFFFFF" points="103.968,209.963 49.458,212.206 49.458,208.977 103.968,206.825 					"/>
				</g>
			</g>
		</g>
	</g>
	<g>
		
			<linearGradient id="SVGID_8_" gradientUnits="userSpaceOnUse" x1="117.606" y1="132.3428" x2="86.4862" y2="281.5465" gradientTransform="matrix(-1 0 0 1 346.1406 0)">
			<stop  offset="0" style="stop-color:#FFC444"/>
			<stop  offset="0.9964" style="stop-color:#F36F56"/>
		</linearGradient>
		<path fill="url(#SVGID_8_)" d="M221.59,175.117c-2.708-2.891,4.787-13.75,8.799-18.509c3.505-4.157,7.107-8.43,11.53-7.889
			c3.884,0.475,7.663,4.57,7.89,8.496C250.417,167.775,225.438,179.227,221.59,175.117z"/>
		
			<linearGradient id="SVGID_9_" gradientUnits="userSpaceOnUse" x1="-1246.6406" y1="307.4141" x2="-1237.3208" y2="307.4141" gradientTransform="matrix(0.9996 0.0289 -0.0289 0.9996 1500.509 17.353)">
			<stop  offset="0" style="stop-color:#444B8C"/>
			<stop  offset="0.9964" style="stop-color:#26264F"/>
		</linearGradient>
		<path fill="url(#SVGID_9_)" d="M254.097,286.711c0.51,0.414,0.604,1.448,0.665,2.125c0.027,0.302,0.041,0.453,0.007,0.56
			c-0.246,0.778-1.755,0.86-4.122,1.103c-3.74,0.381-4.854,0.676-5.146,0.119c-0.274-0.521,0.39-1.375,0.465-1.47
			c0.401-0.507,0.895-0.69,1.848-1.005c1.766-0.58,2.957-0.898,3.318-0.994C253.385,286.546,253.762,286.438,254.097,286.711z"/>
		<path fill="#D8DEE8" d="M251.872,283.293l-0.374,4.263c0.106,0.206,1.373,0.823,2.379,0.294l0.963-4.189L251.872,283.293z"/>
		
			<linearGradient id="SVGID_10_" gradientUnits="userSpaceOnUse" x1="-751.0762" y1="418.0918" x2="-741.1743" y2="418.0918" gradientTransform="matrix(0.9642 0.2651 -0.2651 0.9642 1050.2557 82.0373)">
			<stop  offset="0" style="stop-color:#444B8C"/>
			<stop  offset="0.9964" style="stop-color:#26264F"/>
		</linearGradient>
		<path fill="url(#SVGID_10_)" d="M224.434,286.162c0.61,0.676,0.75,1.918,0.219,2.529c-0.522,0.602-1.308,0.15-3.534,0.217
			c-2.386,0.071-3.008,0.635-4.628,0.188c-0.655-0.182-1.812-0.62-1.789-1.088c0.015-0.328,0.604-0.498,2.57-1.157
			c2.791-0.935,2.778-0.985,3.371-1.085C222.131,285.52,223.626,285.271,224.434,286.162z"/>
		<path fill="#D8DEE8" d="M222.904,282.273l-1.195,3.979c0.09,0.213,1.307,0.926,2.35,0.475l1.777-3.862L222.904,282.273z"/>
		
			<linearGradient id="SVGID_11_" gradientUnits="userSpaceOnUse" x1="127.6572" y1="269.9355" x2="101.2474" y2="210.4016" gradientTransform="matrix(-1 0 0 1 346.1406 0)">
			<stop  offset="0" style="stop-color:#AA80F9"/>
			<stop  offset="0.9964" style="stop-color:#6165D7"/>
		</linearGradient>
		<path fill="url(#SVGID_11_)" d="M233.533,195.125c-0.172,13.373-1.084,28.408-3.273,44.744
			c-2.164,16.146-5.197,30.734-8.505,43.563c1.526,0.41,3.053,0.82,4.579,1.231c3.871-3.61,8.756-9.294,11.113-17.325
			c1.463-4.986,0.975-7.547,1.903-13.679c1.478-9.763,4.47-14.878,7.563-22.749c2.779-7.075,6.064-17.457,7.826-31.335
			C247.671,198.092,240.602,196.607,233.533,195.125z"/>
		
			<linearGradient id="SVGID_12_" gradientUnits="userSpaceOnUse" x1="-210.4658" y1="363.2227" x2="-236.8745" y2="303.6912" gradientTransform="matrix(-0.9925 -0.1225 -0.1225 0.9925 67.0628 -113.5262)">
			<stop  offset="0" style="stop-color:#AA80F9"/>
			<stop  offset="0.9964" style="stop-color:#6165D7"/>
		</linearGradient>
		<path fill="url(#SVGID_12_)" d="M247.311,193.849c0.934,17.008,1.702,34.333,2.284,51.964c0.437,13.23,0.758,26.293,0.972,39.184
			c1.559,0.193,3.117,0.385,4.676,0.578c1.507-2.805,3.508-7.094,4.879-12.589c1.664-6.675,1.279-10.64,2.009-17.558
			c0.819-7.759,2.009-9.449,4.116-19.237c4.279-19.864,6.418-29.798,1.646-35.976C266.343,198.209,261.486,193.178,247.311,193.849z
			"/>
		
			<linearGradient id="SVGID_13_" gradientUnits="userSpaceOnUse" x1="106.8301" y1="130.0947" x2="75.7105" y2="279.2976" gradientTransform="matrix(-1 0 0 1 346.1406 0)">
			<stop  offset="0" style="stop-color:#FFC444"/>
			<stop  offset="0.9964" style="stop-color:#F36F56"/>
		</linearGradient>
		<path fill="url(#SVGID_13_)" d="M270.031,151.104c-3.65-1.027-9.002-2.228-15.555-2.598c-9.347-0.528-14.02-0.792-17.332,1.433
			c-7.648,5.141-1.727,17.005-4.857,46.417c-0.447,4.2-0.547,8.43-0.871,12.642c-0.536,6.974-0.658,7.352-0.173,8.058
			c3.042,4.432,14.394-2.252,31.031,0.391c9.31,1.478,13.531,4.883,16.081,2.427c2.975-2.864,0.424-10.569-1.772-17.201
			c-2.521-7.613-4.078-7.711-5.509-13.444c-1.496-5.993-0.592-9.078-0.358-18.529C270.827,166.176,270.803,159.447,270.031,151.104z
			"/>
		<g opacity="0.3">
			
				<linearGradient id="SVGID_14_" gradientUnits="userSpaceOnUse" x1="80.0674" y1="257.6982" x2="91.8779" y2="201.5985" gradientTransform="matrix(-1 0 0 1 346.1406 0)">
				<stop  offset="0" style="stop-color:#FFC444"/>
				<stop  offset="0.9964" style="stop-color:#F36F56"/>
			</linearGradient>
			<path fill="url(#SVGID_14_)" d="M247.406,206.319c4.35-0.341,7.17,2.118,10.924,0.202c5.146-2.627,6.801-10.802,6.473-16.587
				c-0.498-8.79-5.518-11.107-4.652-16.79c0.468-3.072,2.662-7.152,10.539-11.32c0.104,3.508,0.085,6.498,0.026,8.873
				c-0.233,9.451-1.138,12.536,0.358,18.529c1.431,5.733,2.988,5.831,5.509,13.444c2.196,6.632,4.747,14.337,1.772,17.201
				c-2.55,2.456-6.771-0.949-16.081-2.427c-14.336-2.277-24.741,2.364-29.294,0.859
				C238.482,209.213,243.472,206.627,247.406,206.319z"/>
		</g>
		
			<linearGradient id="SVGID_15_" gradientUnits="userSpaceOnUse" x1="85.5112" y1="125.6489" x2="54.3918" y2="274.8511" gradientTransform="matrix(-1 0 0 1 346.1406 0)">
			<stop  offset="0" style="stop-color:#FFC444"/>
			<stop  offset="0.9964" style="stop-color:#F36F56"/>
		</linearGradient>
		<path fill="url(#SVGID_15_)" d="M264.1,151.707c3.105-2.553,9.351,0.336,11.02,1.108c9.31,4.306,17.668,15.909,15.597,28.171
			c-0.311,1.84-1.751,10.441-9.034,14.609c-6.572,3.761-15.447,2.794-22.558-2.533c-0.972-0.861-1.943-1.725-2.915-2.586
			c-0.956-1.033-1.912-2.066-2.868-3.1c1.503-1.25,4.056-3.054,7.642-4.211c4.729-1.525,8.17,1.212,10.363-0.869
			c1.514-1.437,1.518-3.974,1.145-5.511c-0.754-3.099-3.486-3.971-5.766-6.17C261.368,165.449,260.381,154.762,264.1,151.707z"/>
		<g>
			
				<linearGradient id="SVGID_16_" gradientUnits="userSpaceOnUse" x1="112.042" y1="208.9463" x2="107.0066" y2="194.6794" gradientTransform="matrix(-1 0 0 1 346.1406 0)">
				<stop  offset="0" style="stop-color:#311944"/>
				<stop  offset="1" style="stop-color:#893976"/>
			</linearGradient>
			<polygon fill="url(#SVGID_16_)" points="219.468,191.738 261.096,191.116 250.026,196.459 219.361,194.451 			"/>
			
				<linearGradient id="SVGID_17_" gradientUnits="userSpaceOnUse" x1="90.0444" y1="188.2764" x2="91.8908" y2="201.0334" gradientTransform="matrix(-1 0 0 1 346.1406 0)">
				<stop  offset="0" style="stop-color:#311944"/>
				<stop  offset="1" style="stop-color:#893976"/>
			</linearGradient>
			<path fill="url(#SVGID_17_)" d="M262.564,192.223L262.564,192.223c0,0.779-0.486,1.475-1.219,1.741l-13.302,5.215l-0.061-3.615
				l13.112-4.447C261.832,190.904,262.564,191.457,262.564,192.223z"/>
		</g>
		<path fill="#FFFFFF" d="M256.155,189.76c0.255-0.058-1.245-3.047-2.423-2.701c-1.178,0.345-6.938,3.683-7.461,5.057
			c-0.523,1.375-0.523,1.375-0.523,1.375s2.513,0.196,4.07-0.327C251.377,192.639,254.078,190.223,256.155,189.76z"/>
		<g>
			<g>
				
					<linearGradient id="SVGID_18_" gradientUnits="userSpaceOnUse" x1="126.6299" y1="189.3926" x2="116.8121" y2="175.4513" gradientTransform="matrix(-1 0 0 1 346.1406 0)">
					<stop  offset="0" style="stop-color:#444B8C"/>
					<stop  offset="0.9964" style="stop-color:#26264F"/>
				</linearGradient>
				<path fill="url(#SVGID_18_)" d="M246.879,170.197l2.935,26.717c0.101,0.922-1.189,2.295-2.116,2.252l-43.045-2.643
					c-0.708-0.033-1.297-0.555-1.416-1.252l-5.403-25.805c-0.161-0.938,1.526-1.908,2.479-1.882l45.109,1.269
					C246.175,168.875,246.797,169.448,246.879,170.197z"/>
				
					<linearGradient id="SVGID_19_" gradientUnits="userSpaceOnUse" x1="107.7979" y1="212.4658" x2="129.2837" y2="168.8228" gradientTransform="matrix(-1 0 0 1 346.1406 0)">
					<stop  offset="0" style="stop-color:#311944"/>
					<stop  offset="1" style="stop-color:#893976"/>
				</linearGradient>
				<path fill="url(#SVGID_19_)" d="M245.895,170.977l2.936,26.717c0.101,0.922-0.646,1.717-1.572,1.672l-43.59-2.063
					c-0.707-0.034-1.297-0.555-1.416-1.252l-4.453-25.922c-0.162-0.939,0.577-1.791,1.529-1.765l45.109,1.269
					C245.191,169.654,245.813,170.228,245.895,170.977z"/>
			</g>
			
				<linearGradient id="SVGID_20_" gradientUnits="userSpaceOnUse" x1="97.3013" y1="184.4541" x2="144.5039" y2="184.4541" gradientTransform="matrix(-1 0 0 1 346.1406 0)">
				<stop  offset="0" style="stop-color:#311944"/>
				<stop  offset="1" style="stop-color:#893976"/>
			</linearGradient>
			<path opacity="0.3" fill="url(#SVGID_20_)" d="M220.299,191.042c3.807-1.613,2.463-4.689,6.957-8.522
				c5.93-5.058,11.974-2.864,14.09-6.783c0.658-1.222,0.973-3.121-0.175-6.195l3.267,0.092c0.754,0.021,1.375,0.595,1.457,1.344
				l2.936,26.717c0.101,0.922-0.646,1.717-1.572,1.672l-43.59-2.063c-0.707-0.034-1.297-0.555-1.416-1.252l-0.615-3.578
				c1.323-0.735,2.904-1.404,4.748-1.779C212.779,189.396,215.917,192.898,220.299,191.042z"/>
		</g>
		<path fill="#D8DEE8" d="M200.922,193.565c-0.07-0.216,0.079-0.437,0.306-0.448c0.921-0.047,3.058-0.066,4.237,0.656
			c1.533,0.938,3.514,2.651,1.846,3.516l-1.559,0.807c-0.071,0.037-0.149,0.049-0.229,0.031c-0.553-0.121-2.883-0.639-3.138-0.767
			C202.154,197.244,201.266,194.607,200.922,193.565z"/>
		<g>
			<path fill="#FFFFFF" d="M253.778,138.294c-0.022,2.771,0.286,4.968,0.579,6.473c0.334,1.724,0.576,2.17,0.884,2.531
				c0.464,0.544,1.167,1,5.138,1.985c2.16,0.536,2.438,0.521,2.486,0.736c0.232,1.045-5.66,4.61-11.746,3.751
				c-3.727-0.525-7.115-2.651-6.907-3.767c0.21-1.124,3.931-0.521,5.04-2.553c0.771-1.414-0.094-3.42-1.116-5.083
				C249.126,140.513,252.789,140.149,253.778,138.294z"/>
			<g>
				
					<linearGradient id="SVGID_21_" gradientUnits="userSpaceOnUse" x1="-1453.624" y1="-11.4663" x2="-1460.672" y2="-29.367" gradientTransform="matrix(1 0.0037 -0.0037 1 1710.8079 169.2243)">
					<stop  offset="0" style="stop-color:#311944"/>
					<stop  offset="1" style="stop-color:#6B3976"/>
				</linearGradient>
				<path fill="url(#SVGID_21_)" d="M246.864,139.389c-0.88-1.168-0.934-3.207,0.079-4.496c0.872-1.109,2.244-1.267,3.065-1.362
					c2.38-0.274,5.383,0.719,6.427,2.91c0.619,1.298-0.719,3.995-0.929,4.48c-0.237,0.548-0.668,0.736-1.065,1.151
					c-0.553,0.575-1.416,1.489-2.826,3.018c-0.109-0.451-0.277-1.01-0.541-1.615c-0.102-0.233-0.512-1.143-1.131-1.898
					C248.703,140.064,247.697,140.496,246.864,139.389z"/>
				<path fill="#FFFFFF" d="M253.626,143.804c0,0-1.564,2.567-4.679,2.364c-2.79-0.182-3.198-6.437-1.417-7.764
					c0.595-0.443,1.784-0.626,2.753-0.355c0.571,0.16,0.765,0.398,1.704,0.641c0.866,0.225,1.11,0.129,1.372,0.349
					c0.327,0.276,0.566,0.95,0.021,2.779c0.532-0.539,1.171-0.746,1.624-0.532c0.072,0.034,0.264,0.165,0.371,0.362
					C255.765,142.362,255.112,143.275,253.626,143.804z"/>
				
					<linearGradient id="SVGID_22_" gradientUnits="userSpaceOnUse" x1="-1455.7769" y1="-10.6094" x2="-1462.8324" y2="-28.5291" gradientTransform="matrix(1 0.0037 -0.0037 1 1710.8079 169.2243)">
					<stop  offset="0" style="stop-color:#311944"/>
					<stop  offset="1" style="stop-color:#6B3976"/>
				</linearGradient>
				<path fill="url(#SVGID_22_)" d="M253.486,138.665c-0.135,0.101,0.275,0.603,0.307,1.313c0.06,1.379-1.336,3.034-2.76,3.174
					c-0.842,0.083-1.072-0.424-2.464-0.571c-0.862-0.091-1.579,0.019-2.03,0.117c-0.438,1.512-0.025,3.02,0.985,3.719
					c1.088,0.753,2.478,0.296,3.06,0.105c0.389-0.127,1.635-0.535,2.285-1.677c0.678-1.19,0.013-1.908,0.791-2.713
					c0.393-0.406,0.908-0.582,1.41-1.368c0.137-0.214,0.227-0.403,0.283-0.53C254.633,139.471,253.68,138.52,253.486,138.665z"/>
				<path fill="#FFFFFF" d="M247.552,143.258c0,0,0.603,0.315,1.644,0.256c0.051-0.003,0.106,0.012,0.113,0.038
					c0.023,0.099-0.645,0.542-1.26,0.369c-0.438-0.123-0.777-0.537-0.718-0.642C247.355,143.235,247.455,143.241,247.552,143.258z"
					/>
			</g>
		</g>
	</g>
	<g>
		<g>
			<g>
				<linearGradient id="SVGID_23_" gradientUnits="userSpaceOnUse" x1="241.7715" y1="31.5674" x2="156.308" y2="144.5531">
					<stop  offset="0" style="stop-color:#311944"/>
					<stop  offset="1" style="stop-color:#893976"/>
				</linearGradient>
				<path fill="url(#SVGID_23_)" d="M258.846,68.435l-0.432,45.104c-0.068,7.071-5.834,12.706-12.908,12.706h-95.703
					c-7.612,0-13.7-5.889-13.566-13.275l0.084-4.566l0.018-0.91l0.766-41.633c0.127-6.998,5.867-12.579,12.985-12.891
					c0.327-0.014,0.66-0.015,0.994-0.007l0.127,0.005l95.04,2.438C253.288,55.583,258.912,61.415,258.846,68.435z"/>
				<linearGradient id="SVGID_24_" gradientUnits="userSpaceOnUse" x1="218.9111" y1="14.3828" x2="133.4921" y2="127.3099">
					<stop  offset="0" style="stop-color:#311944"/>
					<stop  offset="1" style="stop-color:#893976"/>
				</linearGradient>
				<path fill="url(#SVGID_24_)" d="M159.01,126.245h-47.523c-1.005,0-1.378-1.143-0.537-1.684l23.905-15.218l1.466-0.914
					l7.224-4.602l1.041-0.762L159.01,126.245z"/>
			</g>
		</g>
		<g>
			<g>
				<linearGradient id="SVGID_25_" gradientUnits="userSpaceOnUse" x1="240.3438" y1="31.5869" x2="154.8805" y2="144.5724">
					<stop  offset="0.0036" style="stop-color:#E38DDD"/>
					<stop  offset="1" style="stop-color:#9571F6"/>
				</linearGradient>
				<path fill="url(#SVGID_25_)" d="M257.392,68.435l-0.432,45.209c-0.069,7.009-5.729,12.604-12.716,12.702
					c-0.063,0.003-0.127-0.102-0.189-0.102h-95.703c-7.612,0-13.703-5.889-13.566-13.275l0.069-3.626l0.015-0.914l0.783-42.569
					c0.135-7.325,6.408-13.094,13.976-12.902l0.461,0.014l1.419,0.038l93.291,2.395C251.834,55.583,257.461,61.415,257.392,68.435z"
					/>
				<linearGradient id="SVGID_26_" gradientUnits="userSpaceOnUse" x1="217.2715" y1="14.6289" x2="132.0233" y2="127.33">
					<stop  offset="0.0036" style="stop-color:#E38DDD"/>
					<stop  offset="1" style="stop-color:#9571F6"/>
				</linearGradient>
				<path fill="url(#SVGID_26_)" d="M157.555,126.245h-47.52c-1.008,0-1.382-1.143-0.537-1.684l25.371-16.158l1.469-0.91l6.796-4.33
					l0.41,0.565L157.555,126.245z"/>
			</g>
		</g>
		<g>
			<path fill="#FFFFFF" d="M184.537,85.102v-4.604l-9.286,5.471l-6.906,4.089v2.703l16.192,8.402v-4.586l-11.357-5.373l4.031-2.169
				L184.537,85.102z"/>
			<path fill="#FFFFFF" d="M197.435,76.834l-6.589,19.987l-2.725,8.272l4.717,0.047l2.471-7.47l6.915-20.901L197.435,76.834z"/>
			<path fill="#FFFFFF" d="M205.768,80.277v4.688l12.063,6.171l-12.063,5.507v4.666l5.618-2.725L223.4,92.75v-2.833L205.768,80.277z
				"/>
		</g>
		<linearGradient id="SVGID_27_" gradientUnits="userSpaceOnUse" x1="198.1074" y1="83.1089" x2="145.1626" y2="153.1039">
			<stop  offset="0.0036" style="stop-color:#E38DDD"/>
			<stop  offset="1" style="stop-color:#9571F6"/>
		</linearGradient>
		<path opacity="0.3" fill="url(#SVGID_27_)" d="M243.91,126.451v-0.207H110.035c-1.008,0-1.382-1.143-0.537-1.684l25.371-16.158
			l0.783-42.556c0.135-7.325,6.408-13.087,13.976-12.895l0.461,0.017c0.327-0.014,0.66-0.015,0.994-0.007l0.127,0.005
			c0.102,0.014,0.199,0.03,0.298,0.044c7.107,1.135,15.357,4.818,17.904,15.434c1.697,7.071,3.178,12.923,5.809,17.524
			c0.62,1.092,1.309,2.115,2.086,3.066c2.953,3.642,7.125,6.247,13.539,7.786c1.379,0.334,2.867,0.617,4.463,0.849
			c3.033,0.442,6.479,0.707,10.405,0.791c0.918,0.019,1.86,0.029,2.833,0.029c0.962,0,1.713,0.033,2.599,0.094
			C231.176,99.974,232.396,116.63,243.91,126.451z"/>
	</g>
	<g>
		<g>
			<g>
				<defs>
					<path id="SVGID_28_" d="M103.666,274.127c-4.947-5.227-11.385-13.622-13.842-25.097c-3.223-15.05,3.233-22.175,4.045-47.281
						c0.513-15.875,0.711-26.958-6.928-33.347c-5.986-5.008-16.069-6.531-22.476-2.601c-5.328,3.269-8.738,10.688-9.964,16.058
						c-0.999,4.375-0.598,7.619-3.284,9.797c-2.745,2.224-5.475,0.71-8.014,2.328c-5.149,3.279-2.994,15.287-2.646,17.228
						c3.875,21.587,22.631,37.104,30.895,43.774C78.284,260.502,88.918,267.943,103.666,274.127z"/>
				</defs>
				<linearGradient id="SVGID_29_" gradientUnits="userSpaceOnUse" x1="39.814" y1="218.8506" x2="103.666" y2="218.8506">
					<stop  offset="0" style="stop-color:#FFC444"/>
					<stop  offset="0.9964" style="stop-color:#F36F56"/>
				</linearGradient>
				<use xlink:href="#SVGID_28_"  overflow="visible" fill="url(#SVGID_29_)"/>
				<clipPath id="SVGID_30_">
					<use xlink:href="#SVGID_28_"  overflow="visible"/>
				</clipPath>
				<g opacity="0.5" clip-path="url(#SVGID_30_)">
					<g>
						<path fill="#FFFFFF" d="M109.406,278.445l0.206-0.459c-15.631-7.027-34.986-19.346-38.417-38.123
							c-1.262-6.906-0.252-13.926,1.146-23.641c1.116-7.756,2.607-13.153,3.922-17.914c1.72-6.227,3.079-11.145,2.768-18.418
							c-0.315-7.38-2.3-14.815-5.9-22.1l-0.452,0.223c3.569,7.221,5.537,14.589,5.849,21.898c0.307,7.193-1.042,12.078-2.75,18.262
							c-1.319,4.775-2.814,10.189-3.936,17.977c-1.352,9.396-2.42,16.816-1.144,23.803c1.633,8.935,7.037,17.275,16.063,24.793
							C92.856,269.822,100.475,274.432,109.406,278.445z"/>
					</g>
					<g>
						<path fill="#FFFFFF" d="M72.876,210.775l0.267-0.098c0.053-0.02,5.385-2.013,10.893-7.046
							c5.083-4.646,11.369-12.907,12.449-25.886l-0.502-0.041c-1.066,12.815-7.27,20.971-12.286,25.555
							c-4.739,4.331-9.329,6.375-10.462,6.84c-3.426-14.35-10.471-23.641-15.794-28.918c-5.813-5.762-10.897-8.123-10.948-8.146
							l-0.209,0.459c0.05,0.022,5.069,2.356,10.82,8.063c5.306,5.265,12.337,14.559,15.708,28.941L72.876,210.775z"/>
					</g>
					<g>
						<path fill="#FFFFFF" d="M70.486,231.816l0.112-0.145c0.056-0.071,5.627-7.237,12.619-13.327
							c6.95-6.054,22.468-7.379,22.624-7.392l-0.041-0.502c-0.158,0.013-15.84,1.353-22.914,7.514
							c-6.477,5.642-11.741,12.2-12.573,13.254c-15.835-5.928-30.815-44.711-30.965-45.104l-0.471,0.18
							c0.038,0.1,3.846,10.012,9.584,20.506c7.724,14.125,15.076,22.521,21.851,24.955L70.486,231.816z"/>
					</g>
					<g>
						<path fill="#FFFFFF" d="M84.432,262.699l-0.224-0.449c-3.696-7.404-2.65-14.889,3.109-22.244
							c4.314-5.51,9.803-8.87,9.858-8.903l-0.261-0.431c-0.056,0.033-5.613,3.434-9.985,9.014
							c-5.695,7.268-6.864,14.979-3.394,22.332c-1.842-0.379-8.656-1.914-17.088-5.429c-9.091-3.79-21.976-10.723-31.738-22.231
							l-18.967-22.361l-0.384,0.326l18.967,22.361c9.83,11.589,22.795,18.564,31.941,22.375c9.906,4.129,17.596,5.537,17.673,5.551
							L84.432,262.699z"/>
					</g>
				</g>
			</g>
		</g>
		<g>
			<g>
				<defs>
					<path id="SVGID_31_" d="M87.877,278.323c-11.262,1.509-25.825,1.824-40.379-2.651c-3.714-1.143-26.66-8.199-25.353-18.408
						c0.46-3.596,3.541-4.545,4.24-9.342c0.829-5.685-2.966-7.988-6.225-14.527c-1.944-3.901-7.635-15.318-1.317-22.844
						c3.775-4.497,11.667-7.4,18.039-6.742c9.346,0.965,13.589,9.404,20.522,23.806c6.146,12.767,5.418,16.185,10.004,25.302
						C70.812,259.682,76.765,268.835,87.877,278.323z"/>
				</defs>
				<linearGradient id="SVGID_32_" gradientUnits="userSpaceOnUse" x1="64.8345" y1="212.6445" x2="46.0725" y2="263.0056">
					<stop  offset="0" style="stop-color:#AA80F9"/>
					<stop  offset="0.9964" style="stop-color:#6165D7"/>
				</linearGradient>
				<use xlink:href="#SVGID_31_"  overflow="visible" fill="url(#SVGID_32_)"/>
				<clipPath id="SVGID_33_">
					<use xlink:href="#SVGID_31_"  overflow="visible"/>
				</clipPath>
				<g opacity="0.5" clip-path="url(#SVGID_33_)">
					<g>
						<path fill="#FFFFFF" d="M108.216,281.421c9.389,0,18.909-1.944,28.396-5.806l-0.19-0.467
							c-11.92,4.853-23.891,6.657-35.577,5.362c-41.818-4.632-62.402-48.835-67.715-62.272c-3.014-7.624-3.735-16.398-2.141-26.08
							l-0.497-0.082c-1.609,9.773-0.879,18.637,2.17,26.348c4.372,11.059,12.338,27.061,25.46,40.492
							c12.625,12.924,26.98,20.357,42.668,22.096C103.253,281.284,105.73,281.421,108.216,281.421z"/>
					</g>
					<g>
						<path fill="#FFFFFF" d="M43.649,239.988l0.119-0.191c0.027-0.044,2.69-4.39,4.482-10.734
							c1.655-5.863,2.887-14.686-0.647-23.426l-0.467,0.189c3.478,8.602,2.264,17.301,0.633,23.085
							c-1.559,5.528-3.785,9.519-4.314,10.425c-25.855-12.505-27.877-30.299-27.879-35.465c0-0.16,0-0.218-0.006-0.26l-0.5,0.064
							c0.002,0.029,0.002,0.095,0.002,0.195c0.002,5.255,2.054,23.382,28.372,36.02L43.649,239.988z"/>
					</g>
					<g>
						<path fill="#FFFFFF" d="M42.565,261.044c4.473,0,9.663-0.631,15.586-2.285l0.13-0.036l0.042-0.129
							c0.047-0.145,4.732-14.798,0.928-33.426l-3.834-18.778l-0.493,0.101l3.834,18.778c3.589,17.576-0.424,31.565-0.874,33.042
							c-14.28,3.959-24.228,1.914-30.065-0.504c-6.341-2.626-9.333-6.246-9.362-6.283l-0.391,0.318
							c0.123,0.15,3.083,3.74,9.529,6.418C31.105,259.718,36.082,261.044,42.565,261.044z"/>
					</g>
				</g>
			</g>
		</g>
	</g>
	<g>
		<g>
			<g>
				<g>
					
						<linearGradient id="SVGID_34_" gradientUnits="userSpaceOnUse" x1="272.4756" y1="198.5703" x2="331.4229" y2="198.5703" gradientTransform="matrix(0.9993 0.0372 -0.0372 0.9993 -211.9599 30.3188)">
						<stop  offset="0" style="stop-color:#444B8C"/>
						<stop  offset="0.9964" style="stop-color:#26264F"/>
					</linearGradient>
					<path fill="url(#SVGID_34_)" d="M102.517,193.886l7.803,87.561c0.118,1.325-0.803,2.505-2.048,2.619l-42.218,4.349
						c-2.526,0.135-3.862-1.235-3.976-2.613l-7.489-90.909c-0.11-1.342,1.144-2.606,3.64-2.699l41.831-0.614
						C101.297,191.555,102.402,192.592,102.517,193.886z"/>
					
						<linearGradient id="SVGID_35_" gradientUnits="userSpaceOnUse" x1="298.0244" y1="212.6982" x2="306.1679" y2="190.0929" gradientTransform="matrix(0.9993 0.0372 -0.0372 0.9993 -211.9599 30.3188)">
						<stop  offset="0" style="stop-color:#444B8C"/>
						<stop  offset="0.9964" style="stop-color:#26264F"/>
					</linearGradient>
					<path fill="url(#SVGID_35_)" d="M104.435,193.668l7.874,88.085c0.119,1.334-0.806,2.521-2.059,2.636l-43.806,4.043
						c-1.343,0.123-2.538-0.908-2.652-2.295l-7.556-91.458c-0.112-1.351,0.89-2.476,2.223-2.501l43.503-0.831
						C103.207,191.322,104.318,192.367,104.435,193.668z"/>
					<path fill="#FFFFFF" d="M103.461,198.529l7.282,81.645c0.111,1.244-0.754,2.35-1.925,2.456l-41.186,3.739
						c-1.25,0.113-2.362-0.85-2.468-2.139l-7.006-84.581c-0.104-1.259,0.828-2.313,2.069-2.341l40.922-0.942
						C102.313,196.34,103.353,197.313,103.461,198.529z"/>
					<g>
						<linearGradient id="SVGID_36_" gradientUnits="userSpaceOnUse" x1="69.3945" y1="222.0557" x2="100.0521" y2="177.5756">
							<stop  offset="0" style="stop-color:#FF9085"/>
							<stop  offset="1" style="stop-color:#FB6FBB"/>
						</linearGradient>
						<path fill="url(#SVGID_36_)" d="M103.461,198.529c-0.109-1.217-1.148-2.189-2.312-2.163l-40.922,0.942
							c-1.241,0.027-2.173,1.082-2.069,2.341l1.003,12.105l45.382-1.097L103.461,198.529z"/>
					</g>
				</g>
				
					<linearGradient id="SVGID_37_" gradientUnits="userSpaceOnUse" x1="299.9102" y1="149.7397" x2="249.9056" y2="285.1686" gradientTransform="matrix(0.9993 0.0372 -0.0372 0.9993 -211.9599 30.3188)">
					<stop  offset="0" style="stop-color:#FFC444"/>
					<stop  offset="0.9964" style="stop-color:#F36F56"/>
				</linearGradient>
				<path fill="url(#SVGID_37_)" d="M81.611,194.413c0.04,0.46-0.29,0.839-0.736,0.849c-0.447,0.01-0.841-0.354-0.88-0.814
					c-0.04-0.459,0.291-0.84,0.737-0.849C81.178,193.59,81.572,193.954,81.611,194.413z"/>
			</g>
		</g>
		<g>
			<g>
				
					<linearGradient id="SVGID_38_" gradientUnits="userSpaceOnUse" x1="-518.6499" y1="252.0684" x2="-495.2574" y2="302.7732" gradientTransform="matrix(1 0 0.0972 0.995 564.9553 -29.0219)">
					<stop  offset="0.0036" style="stop-color:#E38DDD"/>
					<stop  offset="1" style="stop-color:#9571F6"/>
				</linearGradient>
				<polygon fill="url(#SVGID_38_)" points="87.272,244.184 66.795,245.195 63.968,216.255 84.559,215.73 				"/>
				
					<linearGradient id="SVGID_39_" gradientUnits="userSpaceOnUse" x1="-506.7305" y1="234.7949" x2="-479.8038" y2="293.1603" gradientTransform="matrix(1 0 0.0972 0.995 564.9553 -29.0219)">
					<stop  offset="0.0036" style="stop-color:#E38DDD"/>
					<stop  offset="1" style="stop-color:#9571F6"/>
				</linearGradient>
				<polygon fill="url(#SVGID_39_)" points="102.458,243.434 90.429,244.027 87.733,215.648 99.828,215.34 				"/>
				
					<linearGradient id="SVGID_40_" gradientUnits="userSpaceOnUse" x1="-517.3003" y1="266.0215" x2="-498.6626" y2="306.4199" gradientTransform="matrix(1 0 0.0972 0.995 564.9553 -29.0219)">
					<stop  offset="0.0036" style="stop-color:#E38DDD"/>
					<stop  offset="1" style="stop-color:#9571F6"/>
				</linearGradient>
				<polygon fill="url(#SVGID_40_)" points="104.578,266.076 69.073,268.516 67.163,248.96 102.8,247.09 				"/>
				
					<linearGradient id="SVGID_41_" gradientUnits="userSpaceOnUse" x1="-513.9009" y1="290.8115" x2="-501.4736" y2="317.7485" gradientTransform="matrix(1 0 0.0972 0.995 564.9553 -29.0219)">
					<stop  offset="0.0036" style="stop-color:#E38DDD"/>
					<stop  offset="1" style="stop-color:#9571F6"/>
				</linearGradient>
				<polygon fill="url(#SVGID_41_)" points="105.684,277.896 70.262,280.688 69.407,271.927 104.888,269.389 				"/>
			</g>
		</g>
		<g opacity="0.48">
			<path fill="#FFFFFF" d="M93.909,254.137c-4.247-14.838-16.629-13.354-20.332-26.762c-3.042-11.012,3.971-16.816-0.283-26.035
				c-2-4.336-5.505-7.268-9.14-9.271l-5.697,0.108c-1.333,0.025-2.335,1.15-2.223,2.501l7.556,91.458
				c0.114,1.387,1.309,2.418,2.652,2.295l35.917-3.314c-2.296-2.914-4.476-6.48-5.988-10.763
				C93.171,265.289,96.258,262.342,93.909,254.137z"/>
		</g>
	</g>
</g>
</svg>
